<?xml version="1.0" standalone="no"?>
<!DOCTYPE svg PUBLIC "-//W3C//DTD SVG 20010904//EN"
 "http://www.w3.org/TR/2001/REC-SVG-20010904/DTD/svg10.dtd">
<svg version="1.0" xmlns="http://www.w3.org/2000/svg"
 width="500.000000pt" height="500.000000pt" viewBox="0 0 500.000000 500.000000"
 preserveAspectRatio="xMidYMid meet">

<g transform="translate(0.000000,500.000000) scale(0.100000,-0.100000)"
fill="#000000" stroke="none">
<path d="M2556 4584 c-185 -45 -340 -195 -416 -401 -129 -356 3 -859 357
-1365 97 -139 113 -144 319 -94 387 95 697 243 901 431 127 116 233 303 262
459 35 191 -30 399 -163 524 -169 158 -402 196 -596 97 -47 -24 -51 -24 -56
-8 -3 10 -21 52 -41 93 -102 208 -339 319 -567 264z"/>
<path d="M1225 4014 c-226 -35 -405 -191 -460 -400 -30 -114 -13 -289 37 -387
11 -22 18 -40 16 -41 -2 -1 -39 -19 -83 -41 -265 -128 -367 -440 -233 -715 48
-99 169 -216 278 -268 135 -64 192 -76 365 -76 166 0 251 16 440 81 185 64
568 282 680 387 61 58 57 136 -26 426 -155 543 -409 886 -741 1001 -82 28
-206 43 -273 33z"/>
<path d="M3690 2906 c-290 -52 -579 -185 -888 -408 -101 -73 -117 -100 -109
-182 15 -150 115 -477 201 -661 162 -342 337 -532 576 -624 156 -60 303 -63
439 -7 229 93 351 285 338 531 -5 92 -15 136 -60 245 -5 11 14 25 73 52 270
128 374 441 238 718 -48 99 -169 216 -278 268 -47 22 -112 48 -145 57 -82 22
-290 28 -385 11z"/>
<path d="M2145 2266 c-289 -75 -509 -168 -700 -294 -230 -152 -383 -365 -424
-586 -35 -192 30 -399 165 -526 166 -155 402 -193 594 -95 47 24 51 24 56 8 3
-10 21 -52 41 -93 152 -311 557 -371 815 -123 234 226 279 572 133 1010 -62
187 -211 467 -343 645 -81 110 -106 114 -337 54z"/>
</g>
</svg>
