<?xml version="1.0" standalone="no"?>
<!DOCTYPE svg PUBLIC "-//W3C//DTD SVG 20010904//EN"
 "http://www.w3.org/TR/2001/REC-SVG-20010904/DTD/svg10.dtd">
<svg version="1.0" xmlns="http://www.w3.org/2000/svg"
 width="500.000000pt" height="500.000000pt" viewBox="0 0 500.000000 500.000000"
 preserveAspectRatio="xMidYMid meet">

<g transform="translate(0.000000,500.000000) scale(0.100000,-0.100000)"
fill="#000000" stroke="none">
<path d="M440 2480 l0 -1880 2080 0 2080 0 0 1880 0 1880 -2080 0 -2080 0 0
-1880z m3870 0 l0 -1600 -1790 0 -1790 0 0 1600 0 1600 1790 0 1790 0 0 -1600z"/>
<path d="M780 2480 l0 -1550 1740 0 1740 0 0 1550 0 1550 -1740 0 -1740 0 0
-1550z m1602 718 l3 -133 85 132 85 133 88 0 88 0 -116 -172 c-64 -95 -113
-178 -111 -185 5 -12 121 -178 213 -305 l35 -48 -94 0 -93 1 -90 131 -90 132
-3 -132 -3 -132 -74 0 -75 0 0 355 0 355 75 0 74 0 3 -132z m194 -879 c57 -18
77 -31 130 -83 54 -54 65 -72 85 -135 55 -182 -18 -359 -179 -438 -54 -27 -65
-28 -219 -31 l-163 -4 0 356 0 356 139 0 c113 0 152 -4 207 -21z m424 -1054
l0 -25 -480 0 -480 0 0 25 0 25 480 0 480 0 0 -25z"/>
<path d="M2380 1980 l0 -210 38 0 c146 1 235 82 235 215 0 129 -76 205 -208
205 l-65 0 0 -210z"/>
</g>
</svg>
