<?xml version="1.0" standalone="no"?>
<!DOCTYPE svg PUBLIC "-//W3C//DTD SVG 20010904//EN"
 "http://www.w3.org/TR/2001/REC-SVG-20010904/DTD/svg10.dtd">
<svg version="1.0" xmlns="http://www.w3.org/2000/svg"
 width="424.000000pt" height="424.000000pt" viewBox="0 0 424.000000 424.000000"
 preserveAspectRatio="xMidYMid meet">

<g transform="translate(0.000000,424.000000) scale(0.100000,-0.100000)"
fill="#000000" stroke="none">
<path d="M1100 3864 c-183 -39 -331 -173 -393 -353 l-22 -66 -3 -1292 c-3
-1426 -5 -1368 60 -1501 44 -90 142 -188 228 -230 109 -54 172 -62 488 -62
l282 0 0 1513 c0 1294 -2 1522 -15 1582 -44 208 -202 366 -410 410 -85 18
-130 18 -215 -1z"/>
<path d="M2247 1405 c-132 -36 -275 -151 -331 -266 -52 -108 -56 -139 -56
-471 l0 -308 603 0 c355 0 629 4 667 10 84 13 212 76 272 134 103 98 157 215
165 356 10 162 -42 297 -156 410 -71 69 -142 110 -237 135 -79 20 -852 21
-927 0z"/>
</g>
</svg>
