<?xml version="1.0" standalone="no"?>
<!DOCTYPE svg PUBLIC "-//W3C//DTD SVG 20010904//EN"
 "http://www.w3.org/TR/2001/REC-SVG-20010904/DTD/svg10.dtd">
<svg version="1.0" xmlns="http://www.w3.org/2000/svg"
 width="500.000000pt" height="500.000000pt" viewBox="0 0 500.000000 500.000000"
 preserveAspectRatio="xMidYMid meet">

<g transform="translate(0.000000,500.000000) scale(0.100000,-0.100000)"
fill="#000000" stroke="none">
<path d="M2340 4594 c-662 -61 -1228 -396 -1593 -942 -160 -241 -277 -547
-324 -847 -24 -153 -23 -461 1 -610 73 -455 262 -836 575 -1158 321 -330 735
-542 1196 -614 153 -24 461 -23 610 1 455 73 836 262 1158 575 330 321 542
735 614 1196 24 153 23 461 -1 610 -97 608 -419 1111 -924 1448 -238 158 -548
278 -838 322 -98 15 -388 27 -474 19z m-235 -999 c134 -35 228 -138 254 -278
18 -100 -18 -222 -87 -292 l-30 -30 150 -345 c82 -190 153 -348 157 -353 4 -4
72 150 150 342 l143 349 -41 54 c-97 129 -103 283 -16 415 70 105 215 168 337
145 159 -29 261 -131 290 -290 19 -101 -12 -194 -105 -316 -5 -7 52 -151 144
-362 l153 -351 55 -11 c195 -41 320 -241 267 -428 -19 -66 -71 -149 -114 -181
-150 -111 -352 -97 -470 31 -127 138 -129 331 -5 476 l36 41 -77 177 c-42 97
-109 252 -149 344 -40 92 -74 168 -77 168 -7 0 -290 -690 -290 -707 0 -6 11
-24 24 -40 170 -203 51 -519 -210 -562 -153 -24 -301 54 -371 197 -24 49 -28
69 -28 142 0 71 4 94 26 141 15 31 43 75 63 97 l37 40 -147 339 c-80 186 -150
342 -154 346 -4 4 -73 -153 -153 -349 l-146 -357 34 -40 c55 -64 78 -137 73
-232 -6 -101 -33 -161 -105 -232 -67 -66 -140 -95 -238 -95 -312 0 -463 383
-235 596 59 55 101 76 189 91 l64 11 144 352 144 352 -35 43 c-60 74 -80 130
-80 227 -1 103 28 174 97 244 52 52 93 75 162 92 68 17 101 17 170 -1z"/>
</g>
</svg>
