<?xml version="1.0" standalone="no"?>
<!DOCTYPE svg PUBLIC "-//W3C//DTD SVG 20010904//EN"
 "http://www.w3.org/TR/2001/REC-SVG-20010904/DTD/svg10.dtd">
<svg version="1.0" xmlns="http://www.w3.org/2000/svg"
 width="528.000000pt" height="528.000000pt" viewBox="0 0 528.000000 528.000000"
 preserveAspectRatio="xMidYMid meet">

<g transform="translate(0.000000,528.000000) scale(0.100000,-0.100000)"
fill="#000000" stroke="none">
<path d="M2515 4735 c-172 -38 -316 -116 -435 -235 -124 -124 -196 -261 -237
-450 -27 -126 -25 -390 5 -524 38 -170 124 -407 219 -601 18 -38 27 -61 19
-51 -9 11 -17 18 -19 15 -1 -2 -23 -29 -48 -59 -39 -48 -86 -109 -224 -290
-16 -21 -52 -68 -79 -104 -57 -76 -52 -74 -193 -47 -361 71 -649 255 -767 489
-91 180 -96 462 -11 671 72 175 202 323 333 377 65 27 60 30 -14 10 -161 -43
-304 -190 -387 -397 -109 -272 -75 -587 84 -799 123 -162 284 -273 509 -350
119 -40 342 -79 470 -81 54 -1 54 -1 20 -11 -227 -64 -282 -89 -392 -176 -122
-97 -225 -253 -262 -397 -22 -83 -20 -225 3 -317 72 -282 282 -455 576 -475
44 -3 96 -1 115 5 35 10 35 10 -18 11 -73 1 -194 28 -258 56 -308 136 -445
486 -322 825 62 172 201 309 395 389 123 50 123 50 216 -26 45 -37 100 -83
123 -103 23 -19 69 -57 104 -85 35 -27 70 -57 79 -65 9 -9 33 -28 53 -43 l38
-28 -41 -79 c-86 -170 -116 -316 -106 -520 13 -253 105 -469 268 -631 204
-203 476 -195 689 21 41 42 85 96 98 121 13 24 16 35 8 24 -63 -80 -86 -106
-135 -148 -112 -96 -248 -140 -359 -118 -125 25 -243 113 -339 253 -126 183
-176 346 -177 573 0 160 4 172 57 185 40 10 180 49 432 121 61 17 111 32 113
34 2 2 -1 13 -8 24 -24 45 2 17 50 -54 171 -253 439 -518 612 -606 168 -85
387 -77 514 17 58 43 120 116 151 176 32 62 28 72 -6 13 -72 -127 -227 -215
-377 -215 -209 0 -480 170 -718 452 l-48 58 43 77 c23 43 56 103 72 133 139
263 162 300 180 300 6 0 28 -5 48 -10 67 -19 323 -50 502 -62 369 -24 602 29
748 172 68 67 125 175 134 255 l6 50 -19 -51 c-45 -126 -150 -248 -255 -298
-160 -75 -403 -102 -697 -76 -123 11 -330 40 -330 46 0 13 -112 443 -120 461
-8 20 -5 25 33 46 275 154 437 259 542 353 33 30 30 28 -20 -9 -163 -120 -423
-265 -448 -250 -10 5 -170 146 -444 388 l-34 30 30 85 c161 462 354 769 584
933 135 96 256 140 382 140 96 0 72 14 -40 24 -191 16 -413 -95 -571 -285
-163 -196 -335 -541 -424 -847 -17 -60 -32 -110 -33 -110 -1 0 -162 4 -358 9
l-356 9 -21 51 c-67 169 -107 339 -123 526 -27 303 55 602 218 803 128 157
324 256 543 276 l95 8 -90 1 c-49 0 -117 -6 -150 -13z m95 -1987 c186 -59 373
-287 396 -482 9 -76 -18 -181 -67 -256 -94 -145 -292 -218 -518 -191 -192 24
-300 118 -331 290 -12 69 -5 140 29 272 51 198 172 342 318 379 43 10 120 5
173 -12z"/>
</g>
</svg>
