<?xml version="1.0" standalone="no"?>
<!DOCTYPE svg PUBLIC "-//W3C//DTD SVG 20010904//EN"
 "http://www.w3.org/TR/2001/REC-SVG-20010904/DTD/svg10.dtd">
<svg version="1.0" xmlns="http://www.w3.org/2000/svg"
 width="536.000000pt" height="536.000000pt" viewBox="0 0 536.000000 536.000000"
 preserveAspectRatio="xMidYMid meet">

<g transform="translate(0.000000,536.000000) scale(0.100000,-0.100000)"
fill="#000000" stroke="none">
<path d="M2697 4647 c-14 -57 -29 -196 -52 -482 -14 -170 -31 -341 -36 -378
-6 -38 -9 -71 -6 -73 3 -3 126 52 273 122 287 135 382 178 509 226 44 17 82
32 84 34 6 5 -143 187 -217 266 -125 132 -283 234 -427 276 -118 34 -122 35
-128 9z"/>
<path d="M2128 4304 c-253 -45 -604 -207 -847 -389 -123 -93 -221 -195 -221
-232 0 -6 59 -58 131 -115 73 -57 198 -156 280 -220 l148 -117 30 53 c80 142
240 208 421 173 100 -20 178 -56 234 -107 25 -24 46 -40 46 -37 0 3 11 111 25
239 29 273 51 513 60 654 7 100 7 101 -17 107 -40 11 -209 6 -290 -9z"/>
<path d="M4005 4036 c-71 -24 -211 -75 -310 -114 -99 -38 -313 -122 -475 -185
-276 -107 -485 -185 -590 -219 l-45 -15 -16 -129 c-20 -155 -39 -419 -39 -528
0 -76 1 -78 23 -72 12 3 65 9 117 12 252 16 526 -94 777 -313 41 -36 76 -63
79 -60 2 2 11 35 20 73 10 46 17 140 20 279 3 116 7 220 9 231 6 27 66 56 108
52 28 -3 36 -10 60 -58 66 -133 51 -432 -40 -765 -18 -64 -19 -85 -10 -245 12
-196 0 -396 -32 -560 -11 -52 -18 -96 -16 -98 7 -7 245 52 319 80 413 152 663
467 730 921 60 400 -39 940 -254 1385 -105 217 -220 372 -277 372 -16 0 -86
-20 -158 -44z m-205 -317 c95 -43 180 -157 180 -242 0 -70 -55 -117 -138 -117
-118 0 -256 204 -212 311 15 36 63 69 100 69 14 0 45 -10 70 -21z"/>
<path d="M1903 3261 c-148 -51 -224 -163 -209 -309 17 -166 161 -423 374 -669
l28 -32 89 9 c50 5 98 10 108 10 15 0 17 14 17 144 0 79 7 229 16 333 8 103
14 236 12 295 -3 97 -5 109 -28 133 -79 85 -285 129 -407 86z m112 -190 c56
-26 119 -95 151 -166 36 -79 40 -179 8 -222 -45 -60 -132 -53 -209 18 -53 49
-85 120 -92 208 -7 80 8 132 44 161 32 25 47 25 98 1z"/>
<path d="M929 3214 c-30 -20 -84 -66 -120 -101 -98 -95 -137 -188 -118 -274
16 -71 236 -385 382 -544 l55 -60 88 44 c84 41 410 225 427 240 4 4 -6 32 -23
62 -39 72 -83 211 -105 329 l-18 95 -146 97 c-183 122 -238 148 -312 148 -49
0 -64 -5 -110 -36z"/>
<path d="M2607 2581 c-21 -4 -41 -12 -46 -17 -10 -12 -59 -288 -67 -381 -4
-40 -9 -73 -11 -73 -1 0 -47 -6 -101 -14 -53 -8 -157 -20 -229 -26 l-133 -12
-57 51 c-32 28 -93 89 -136 136 -43 47 -82 85 -87 85 -5 0 -44 -26 -87 -58
-106 -79 -221 -149 -458 -276 -110 -60 -207 -114 -215 -122 -12 -12 -11 -23 9
-86 74 -233 327 -658 458 -768 54 -45 376 -201 513 -248 457 -158 846 -143
1126 44 258 171 407 495 420 914 5 141 4 144 -13 120 -63 -89 -189 -197 -288
-247 -204 -104 -539 -156 -859 -133 -247 17 -392 50 -511 115 -64 35 -212 157
-222 181 -7 19 49 78 89 95 28 11 40 7 196 -70 101 -49 191 -86 227 -93 100
-20 530 -16 645 5 282 54 485 173 605 357 64 98 64 98 1 170 -141 162 -334
291 -501 335 -71 19 -214 27 -268 16z"/>
</g>
</svg>
