<?xml version="1.0" standalone="no"?>
<!DOCTYPE svg PUBLIC "-//W3C//DTD SVG 20010904//EN"
 "http://www.w3.org/TR/2001/REC-SVG-20010904/DTD/svg10.dtd">
<svg version="1.0" xmlns="http://www.w3.org/2000/svg"
 width="484.000000pt" height="484.000000pt" viewBox="0 0 484.000000 484.000000"
 preserveAspectRatio="xMidYMid meet">

<g transform="translate(0.000000,484.000000) scale(0.100000,-0.100000)"
fill="#000000" stroke="none">
<path d="M2871 4460 c-30 -34 -61 -60 -72 -60 -11 0 -29 16 -44 40 -35 56 -51
52 -70 -17 -43 -153 -85 -237 -160 -321 -45 -50 -46 -52 -49 -129 -5 -106 -13
-133 -40 -133 -20 0 -21 4 -22 138 -1 119 -4 149 -28 227 -44 145 -135 295
-179 295 -8 0 -25 -16 -37 -35 -33 -53 -48 -65 -84 -65 -24 0 -45 11 -77 38
-86 76 -93 75 -152 -19 -43 -70 -77 -84 -156 -69 -86 16 -88 15 -106 -40 -27
-80 -60 -87 -180 -39 -112 44 -123 34 -150 -144 -8 -53 -42 -74 -94 -58 -61
18 -68 15 -80 -34 -14 -57 -34 -67 -124 -65 -103 3 -105 3 -123 -25 -14 -22
-14 -32 0 -113 21 -127 8 -165 -64 -177 -41 -7 -43 -11 -55 -78 -7 -45 -32
-63 -100 -72 -60 -9 -85 -21 -85 -41 0 -8 16 -46 37 -84 50 -97 44 -110 -79
-159 -30 -11 -29 -36 1 -46 62 -19 200 -147 261 -240 36 -55 46 -64 86 -74 24
-6 69 -22 100 -36 46 -21 55 -28 52 -47 -4 -28 -15 -27 -94 6 -155 65 -441 59
-524 -11 -38 -32 -38 -50 1 -71 60 -33 79 -53 79 -81 0 -34 -45 -98 -99 -142
-23 -18 -41 -38 -41 -45 0 -7 16 -22 35 -34 70 -43 81 -86 40 -157 -31 -52
-25 -67 36 -97 37 -18 44 -26 47 -54 3 -26 -6 -46 -47 -100 -66 -89 -75 -115
-53 -140 14 -17 75 -44 165 -75 9 -4 23 -18 29 -33 10 -22 9 -32 -10 -65 -12
-21 -22 -41 -22 -44 0 -3 20 -14 45 -25 59 -25 65 -50 30 -127 -45 -102 -12
-133 141 -133 40 0 75 -5 82 -12 7 -7 9 -27 5 -55 l-6 -43 47 0 c61 0 66 -14
31 -99 -14 -37 -25 -81 -23 -97 3 -28 4 -29 63 -29 l60 0 0 -57 c0 -32 3 -58
8 -58 4 0 11 0 16 0 6 0 31 19 58 42 56 48 184 111 264 128 50 11 60 18 104
72 59 73 83 88 102 63 11 -16 7 -24 -35 -69 -97 -102 -141 -217 -149 -386 -8
-163 13 -189 111 -134 51 29 83 25 90 -9 3 -12 8 -53 13 -92 7 -63 10 -70 32
-73 13 -2 42 7 66 19 37 19 46 21 71 10 16 -6 39 -27 52 -46 12 -19 27 -35 33
-35 7 0 29 16 50 35 63 56 107 48 146 -29 53 -106 88 -119 156 -57 95 87 110
85 210 -27 16 -18 33 -32 38 -32 5 0 31 22 57 49 62 64 81 69 140 36 l47 -26
39 45 c21 25 46 46 55 46 10 0 49 -20 87 -45 91 -59 106 -58 133 4 11 27 21
54 21 58 0 18 42 53 63 53 12 0 33 -9 47 -20 35 -27 59 -25 65 5 3 14 7 36 10
50 7 30 22 31 85 4 67 -29 84 -24 88 26 5 79 9 85 52 85 52 0 51 12 0 98 -51
85 -70 147 -70 235 l0 70 -57 70 c-54 66 -56 70 -38 83 26 19 27 19 54 -22 73
-107 235 -206 409 -249 87 -22 102 -16 102 44 0 63 15 74 102 79 l70 4 -7 45
c-8 54 3 69 56 78 54 9 68 33 62 105 -5 57 -5 59 24 74 16 8 54 18 83 22 53 7
90 31 90 58 0 8 -13 46 -30 84 -46 109 -39 139 38 152 l37 6 -3 59 c-3 90 1
98 67 134 32 17 61 38 65 46 3 8 -8 40 -25 71 -34 66 -32 77 22 140 21 25 39
47 39 50 0 3 -11 21 -25 41 -25 38 -23 56 9 83 24 20 19 47 -14 70 -16 12 -30
29 -30 38 0 9 21 34 46 57 58 50 55 67 -21 124 -45 34 -55 47 -55 72 0 16 7
41 16 54 25 39 4 57 -55 49 -62 -8 -192 12 -265 41 -58 24 -59 24 -95 6 -20
-11 -67 -28 -105 -40 -55 -17 -71 -19 -78 -9 -17 27 0 39 94 72 162 55 288
145 368 262 38 54 38 73 0 106 -26 22 -30 33 -30 75 1 26 5 68 9 92 11 54 -7
76 -70 86 -78 13 -82 18 -74 91 6 61 6 64 -15 64 -35 0 -79 29 -86 56 -4 14 1
59 11 100 9 40 15 81 11 89 -4 11 -22 15 -73 16 -97 0 -135 16 -150 59 -6 19
-9 49 -7 66 3 18 1 41 -5 53 -10 18 -21 21 -86 21 -67 0 -75 2 -93 25 -11 14
-23 43 -27 65 l-7 40 -53 -6 c-49 -6 -54 -4 -69 18 -9 14 -23 48 -32 77 -8 29
-24 61 -35 72 -18 18 -21 18 -56 4 -21 -9 -59 -30 -85 -46 -63 -41 -89 -36
-107 19 l-13 43 -71 -3 -71 -3 -26 47 c-30 54 -58 88 -75 88 -7 0 -35 -27 -64
-60z m-636 -1887 c116 -369 212 -674 215 -676 3 -3 99 301 214 674 l209 679
300 0 c235 0 298 -3 295 -12 -3 -7 -162 -437 -354 -955 l-349 -943 -320 0
-320 0 -354 943 c-195 518 -356 948 -359 955 -3 10 59 12 304 10 l309 -3 210
-672z"/>
</g>
</svg>
