<svg width="390" height="844" viewBox="0 0 390 844" fill="none" xmlns="http://www.w3.org/2000/svg">
<g clip-path="url(#clip0_237_950)">
<rect width="390" height="844" fill="white"/>
<g filter="url(#filter0_d_237_950)">
<path d="M365.15 -121.538C340.094 -117.853 329.467 -65.563 309.107 -50.5015C288.747 -35.44 259.283 -58.0716 248.427 -35.1909C237.571 -12.3103 164.142 55.1105 165.354 80.4069C166.566 105.703 242.38 88.0947 255.373 109.833C337.769 -19.8831 286.521 149.77 308.227 162.816C329.934 175.862 354.522 183.354 379.816 184.628C405.109 185.901 430.326 180.918 453.234 170.117C476.141 159.317 496.031 143.035 511.142 122.712L387.56 30.8227L365.15 -121.538Z" fill="#DD722E"/>
</g>
<g filter="url(#filter1_d_237_950)">
<path d="M-860.849 -28.762L415.503 -125.337L429.876 64.6204C429.876 64.6204 -454.753 -49.4604 -486.733 71.2966C-518.713 192.054 -847.494 147.734 -847.494 147.734L-860.849 -28.762Z" fill="url(#paint0_linear_237_950)"/>
</g>
</g>
<defs>
<filter id="filter0_d_237_950" x="161.339" y="-121.538" width="353.803" height="314.361" filterUnits="userSpaceOnUse" color-interpolation-filters="sRGB">
<feFlood flood-opacity="0" result="BackgroundImageFix"/>
<feColorMatrix in="SourceAlpha" type="matrix" values="0 0 0 0 0 0 0 0 0 0 0 0 0 0 0 0 0 0 127 0" result="hardAlpha"/>
<feOffset dy="4"/>
<feGaussianBlur stdDeviation="2"/>
<feComposite in2="hardAlpha" operator="out"/>
<feColorMatrix type="matrix" values="0 0 0 0 0 0 0 0 0 0 0 0 0 0 0 0 0 0 0.25 0"/>
<feBlend mode="normal" in2="BackgroundImageFix" result="effect1_dropShadow_237_950"/>
<feBlend mode="normal" in="SourceGraphic" in2="effect1_dropShadow_237_950" result="shape"/>
</filter>
<filter id="filter1_d_237_950" x="-864.849" y="-125.337" width="1298.72" height="289.012" filterUnits="userSpaceOnUse" color-interpolation-filters="sRGB">
<feFlood flood-opacity="0" result="BackgroundImageFix"/>
<feColorMatrix in="SourceAlpha" type="matrix" values="0 0 0 0 0 0 0 0 0 0 0 0 0 0 0 0 0 0 127 0" result="hardAlpha"/>
<feOffset dy="4"/>
<feGaussianBlur stdDeviation="2"/>
<feComposite in2="hardAlpha" operator="out"/>
<feColorMatrix type="matrix" values="0 0 0 0 0 0 0 0 0 0 0 0 0 0 0 0 0 0 0.25 0"/>
<feBlend mode="normal" in2="BackgroundImageFix" result="effect1_dropShadow_237_950"/>
<feBlend mode="normal" in="SourceGraphic" in2="effect1_dropShadow_237_950" result="shape"/>
</filter>
<linearGradient id="paint0_linear_237_950" x1="-501.508" y1="-104.089" x2="-408.861" y2="265.475" gradientUnits="userSpaceOnUse">
<stop offset="0.405" stop-color="#3C8493"/>
<stop offset="1" stop-color="#12282D"/>
</linearGradient>
<clipPath id="clip0_237_950">
<rect width="390" height="844" fill="white"/>
</clipPath>
</defs>
</svg>
