<svg width="390" height="844" viewBox="0 0 390 844" fill="none" xmlns="http://www.w3.org/2000/svg">
<rect width="390" height="844" fill="#1E1E1E"/>
<path d="M-3741 -2057C-3741 -2058.1 -3740.1 -2059 -3739 -2059H4184C4185.1 -2059 4186 -2058.1 4186 -2057V2246C4186 2247.1 4185.1 2248 4184 2248H-3739C-3740.1 2248 -3741 2247.1 -3741 2246V-2057Z" fill="#404040"/>
<path d="M-3739 -2058H4184V-2060H-3739V-2058ZM4185 -2057V2246H4187V-2057H4185ZM4184 2247H-3739V2249H4184V2247ZM-3740 2246V-2057H-3742V2246H-3740ZM-3739 2247C-3739.55 2247 -3740 2246.55 -3740 2246H-3742C-3742 2247.66 -3740.66 2249 -3739 2249V2247ZM4185 2246C4185 2246.55 4184.55 2247 4184 2247V2249C4185.66 2249 4187 2247.66 4187 2246H4185ZM4184 -2058C4184.55 -2058 4185 -2057.55 4185 -2057H4187C4187 -2058.66 4185.66 -2060 4184 -2060V-2058ZM-3739 -2060C-3740.66 -2060 -3742 -2058.66 -3742 -2057H-3740C-3740 -2057.55 -3739.55 -2058 -3739 -2058V-2060Z" fill="white" fill-opacity="0.1"/>
<g clip-path="url(#clip0_0_1)">
<rect width="390" height="844" fill="white"/>
<path d="M-1 0H397V71L128.605 60L-1 71V0Z" fill="#DD722E"/>
<path d="M22.1299 23.668H20.0029V29.6836H21.8291C21.9723 29.6836 22.1227 29.6764 22.2803 29.6621C23.8988 29.4902 24.708 28.4733 24.708 26.6113C24.708 26.2246 24.665 25.8594 24.5791 25.5156C24.2497 24.2839 23.4333 23.668 22.1299 23.668ZM22.1729 36H16.2217V35.4414H17.9404V23.668H16.2217V23.1094H22.7529C23.6696 23.1094 24.4574 23.2598 25.1162 23.5605C26.348 24.1478 26.9639 25.1432 26.9639 26.5469C26.9639 27.1914 26.8206 27.7715 26.5342 28.2871C25.7751 29.6335 24.2282 30.3066 21.8936 30.3066H20.0029V35.4414H21.6143C21.6859 35.4414 21.7575 35.4486 21.8291 35.4629C22.0583 35.5059 22.1729 35.6849 22.1729 36ZM36.9014 36.2148C35.8701 36.2005 35.2614 35.5488 35.0752 34.2598C34.9463 34.5749 34.7529 34.8685 34.4951 35.1406C33.8076 35.8568 32.9411 36.2148 31.8955 36.2148C31.4658 36.2148 31.0648 36.1432 30.6924 36C29.7041 35.6133 29.21 34.8542 29.21 33.7227C29.21 33.5365 29.2243 33.3646 29.2529 33.207C29.5537 31.5742 31.4873 30.7507 35.0537 30.7363V29.3828C35.0394 27.9219 34.3949 27.1771 33.1201 27.1484C32.5758 27.1484 32.1676 27.3346 31.8955 27.707C31.8525 27.7786 31.7308 28.0938 31.5303 28.6523C31.3584 29.1107 31.0791 29.3398 30.6924 29.3398C30.6064 29.3398 30.5133 29.3327 30.4131 29.3184C29.9834 29.2181 29.7686 28.9388 29.7686 28.4805C29.7686 28.237 29.8545 27.9935 30.0264 27.75C30.5706 26.9909 31.6735 26.6113 33.335 26.6113C35.6696 26.6257 36.8512 27.7214 36.8799 29.8984V34.4316C36.8942 35.1335 37.0804 35.4987 37.4385 35.5273C37.8825 35.513 38.1546 34.9902 38.2549 33.959L38.8135 33.9805C38.7992 34.224 38.7777 34.4531 38.749 34.668C38.5485 35.6992 37.9326 36.2148 36.9014 36.2148ZM32.6904 35.334C32.9482 35.334 33.2204 35.2767 33.5068 35.1621C34.2946 34.7897 34.8102 34.1094 35.0537 33.1211V31.3379C34.0511 31.3522 33.2705 31.4238 32.7119 31.5527C31.652 31.8105 31.1221 32.4193 31.1221 33.3789C31.1221 33.5365 31.1292 33.6868 31.1436 33.8301C31.2725 34.8327 31.7881 35.334 32.6904 35.334ZM45.4854 35.4629C45.5713 35.4629 45.6429 35.4701 45.7002 35.4844C45.915 35.513 46.0225 35.6849 46.0225 36H40.5654V35.4629C40.9951 35.4629 41.3102 35.4342 41.5107 35.377C41.8975 35.248 42.0908 34.8542 42.0908 34.1953V27.3848H40.5654V26.8477H43.8096L43.8955 28.9102C44.0674 28.5091 44.2965 28.151 44.583 27.8359C45.2705 27.0911 46.0583 26.7188 46.9463 26.7188C47.1038 26.7188 47.2542 26.7331 47.3975 26.7617C48.0563 26.9049 48.3857 27.306 48.3857 27.9648C48.3857 28.0651 48.3714 28.1725 48.3428 28.2871C48.1995 28.7311 47.8916 28.9531 47.4189 28.9531C47.3187 28.9531 47.2184 28.9388 47.1182 28.9102C46.889 28.8385 46.6598 28.6022 46.4307 28.2012C46.2301 27.8431 46.0225 27.6641 45.8076 27.6641C45.6357 27.6641 45.4281 27.7643 45.1846 27.9648C44.4541 28.5807 44.0387 29.5046 43.9385 30.7363V35.4629H45.4854ZM49.9014 27.4062V26.8691H51.4053V24.8281L53.2314 24.377V26.8691H56.4756V27.4062H53.2314V33.9375C53.2458 35.0117 53.6325 35.5632 54.3916 35.5918C55.1221 35.5775 55.6377 34.9329 55.9385 33.6582L56.5186 33.7656C56.5186 33.7799 56.5186 33.7943 56.5186 33.8086C56.1891 35.4271 55.3512 36.2363 54.0049 36.2363C52.3721 36.179 51.5055 35.2122 51.4053 33.3359V27.4062H49.9014ZM59.9463 39.416C60.1325 39.416 60.3258 39.3802 60.5264 39.3086C61.2139 39.0078 61.9443 37.9336 62.7178 36.0859L58.7861 27.4062H57.7764V26.8477H62.1377V27.4062H60.7197L63.5771 34.0879L66.2627 27.4062H64.6943V26.8477H67.96C67.96 26.9766 67.9528 27.084 67.9385 27.1699C67.8955 27.3275 67.7236 27.4062 67.4229 27.4062C67.3083 27.4062 67.208 27.4134 67.1221 27.4277C66.9359 27.485 66.7712 27.7142 66.6279 28.1152L63.4482 36.0645C63.1331 36.8379 62.8109 37.4967 62.4814 38.041C61.6507 39.416 60.6696 40.1035 59.5381 40.1035C59.1943 40.1035 58.8649 40.0391 58.5498 39.9102C57.9196 39.6523 57.6045 39.2585 57.6045 38.7285C57.6045 38.6712 57.6117 38.6068 57.626 38.5352C57.7119 38.1341 57.9912 37.9336 58.4639 37.9336C58.6357 37.9336 58.7861 37.9766 58.915 38.0625C59.0726 38.1628 59.2373 38.4349 59.4092 38.8789C59.5381 39.237 59.7171 39.416 59.9463 39.416ZM79.6162 32.584C79.6162 33.472 79.2939 34.2383 78.6494 34.8828C77.7327 35.7708 76.4437 36.2148 74.7822 36.2148C73.3499 36.2148 72.0824 35.8496 70.9795 35.1191C70.9795 35.4056 70.9652 35.6133 70.9365 35.7422C70.8649 35.9427 70.6572 36.043 70.3135 36.043V31.5742H71.001C71.0153 31.7174 71.0296 31.8678 71.0439 32.0254C71.3734 34.4173 72.5765 35.6133 74.6533 35.6133C75.1833 35.6133 75.6702 35.5202 76.1143 35.334C77.0596 34.9043 77.5322 34.1882 77.5322 33.1855C77.5322 32.8132 77.4463 32.4694 77.2744 32.1543C76.9307 31.5527 76.1214 30.9655 74.8467 30.3926C73.4574 29.7624 72.641 29.3757 72.3975 29.2324C71.0654 28.4733 70.3994 27.4922 70.3994 26.2891C70.3994 25.4727 70.693 24.7708 71.2803 24.1836C72.154 23.3242 73.3714 22.8945 74.9326 22.8945C76.2074 22.8945 77.3747 23.1738 78.4346 23.7324C78.4346 23.5892 78.4489 23.4674 78.4775 23.3672C78.5205 23.1237 78.7282 23.002 79.1006 23.002V26.7832H78.4131C78.4274 25.9668 78.2197 25.2793 77.79 24.7207C77.1742 23.9043 76.2718 23.4961 75.083 23.4961C74.6247 23.4961 74.2021 23.5749 73.8154 23.7324C72.9274 24.0905 72.4834 24.7279 72.4834 25.6445C72.4834 25.9883 72.5622 26.3177 72.7197 26.6328C73.0492 27.2201 73.8441 27.793 75.1045 28.3516C76.5081 28.9818 77.3245 29.3685 77.5537 29.5117C78.9287 30.2995 79.6162 31.3236 79.6162 32.584ZM86.1592 27.3848H84.6123L87.2334 34.6465L88.9307 29.4688L88.0068 26.8477H91.4658V27.3848H90.0049L92.4541 34.5605L94.7744 27.3848H93.292V26.8477H96.4502C96.4502 26.9193 96.443 26.9837 96.4287 27.041C96.4001 27.2702 96.2282 27.3848 95.9131 27.3848C95.8415 27.3848 95.7699 27.3919 95.6982 27.4062C95.4834 27.4492 95.3044 27.6927 95.1611 28.1367L92.54 36.1074H92.1318C91.874 36.1074 91.6735 36.0716 91.5303 36C91.2581 35.8711 90.986 35.3984 90.7139 34.582L89.2314 30.3711L87.3408 36.1074H86.8682C86.6247 36.1074 86.4313 36.0788 86.2881 36.0215C85.973 35.8783 85.665 35.3984 85.3643 34.582L82.7217 27.3848H81.7764V26.8477H86.1592V27.3848ZM102.542 35.4629C102.628 35.4629 102.7 35.4701 102.757 35.4844C102.972 35.513 103.079 35.6849 103.079 36H98.0732V35.4629C98.5029 35.4629 98.8252 35.4342 99.04 35.377C99.484 35.248 99.7061 34.8542 99.7061 34.1953V27.3848H98.0732V26.8477H101.532V35.4629H102.542ZM101.769 23.7754C101.769 23.9616 101.726 24.1478 101.64 24.334C101.41 24.8066 101.038 25.043 100.522 25.043C100.336 25.043 100.157 25.0072 99.9854 24.9355C99.4984 24.7064 99.2549 24.3197 99.2549 23.7754C99.2549 23.5892 99.2979 23.403 99.3838 23.2168C99.613 22.7441 99.9925 22.5078 100.522 22.5078C100.709 22.5078 100.895 22.5508 101.081 22.6367C101.539 22.8802 101.769 23.2598 101.769 23.7754ZM108.591 39.5449H110.009C110.095 39.5449 110.166 39.5521 110.224 39.5664C110.438 39.5951 110.546 39.7669 110.546 40.082H105.218V39.5449C105.647 39.5449 105.97 39.5091 106.185 39.4375C106.557 39.3086 106.743 38.9219 106.743 38.2773V27.3848H105.218V26.8477H108.44L108.548 29.125C108.677 28.7526 108.856 28.4089 109.085 28.0938C109.787 27.1055 110.782 26.6113 112.071 26.6113C112.945 26.6113 113.697 26.8906 114.327 27.4492C115.258 28.2943 115.724 29.5404 115.724 31.1875C115.724 32.6198 115.323 33.8014 114.521 34.7324C113.661 35.7207 112.58 36.2148 111.276 36.2148C110.231 36.1576 109.336 35.7923 108.591 35.1191V39.5449ZM111.298 27.5137C110.811 27.5137 110.36 27.6712 109.944 27.9863C109.028 28.7025 108.569 29.9844 108.569 31.832C108.569 32.6484 108.67 33.3503 108.87 33.9375C109.285 35.0977 110.016 35.6777 111.062 35.6777C111.391 35.6777 111.699 35.6133 111.985 35.4844C113.117 34.9688 113.683 33.6152 113.683 31.4238C113.683 30.9798 113.654 30.5573 113.597 30.1562C113.339 28.3945 112.573 27.5137 111.298 27.5137ZM122.911 27.1484C122.567 27.1484 122.245 27.2272 121.944 27.3848C120.97 27.8861 120.455 28.9818 120.397 30.6719L122.503 30.7363C123.133 30.7507 123.627 30.7148 123.985 30.6289C124.616 30.4714 124.931 30.0417 124.931 29.3398C124.931 29.0391 124.888 28.7526 124.802 28.4805C124.515 27.5924 123.885 27.1484 122.911 27.1484ZM126.714 33.916C126.628 34.1022 126.535 34.2884 126.435 34.4746C125.704 35.6348 124.537 36.2148 122.933 36.2148C121.973 36.2148 121.114 35.9785 120.354 35.5059C119.022 34.6465 118.356 33.3001 118.356 31.4668C118.356 30.4212 118.586 29.4974 119.044 28.6953C119.86 27.306 121.135 26.6113 122.868 26.6113C123.785 26.6113 124.601 26.8047 125.317 27.1914C126.349 27.7786 126.864 28.5807 126.864 29.5977C126.864 30.0846 126.7 30.4714 126.37 30.7578C125.869 31.1589 124.701 31.3451 122.868 31.3164L120.397 31.2734C120.412 31.8034 120.455 32.2904 120.526 32.7344C120.87 34.6536 121.801 35.6133 123.319 35.6133C123.534 35.6133 123.756 35.5918 123.985 35.5488C124.988 35.334 125.718 34.7253 126.177 33.7227L126.714 33.916Z" fill="white"/>
<path d="M107.814 44.037C106.804 46.7096 90.6258 45.5645 69.4226 45.5645C48.2194 45.5645 27.9998 48.6995 27.9998 47.8559C27.9998 47.0122 44.1781 44.037 65.3814 44.037C86.5846 44.037 110.34 39.4538 107.814 44.037Z" fill="white"/>
</g>
<defs>
<clipPath id="clip0_0_1">
<rect width="390" height="844" fill="white"/>
</clipPath>
</defs>
</svg>
