<svg width="376" height="60" viewBox="0 0 376 60" fill="none" xmlns="http://www.w3.org/2000/svg">
<path d="M20.8799 3.95898H13.6289V24.4668H19.8545C20.3428 24.4668 20.8555 24.4424 21.3926 24.3936C26.9101 23.8076 29.6689 20.3408 29.6689 13.9932C29.6689 12.6748 29.5224 11.4297 29.2295 10.2578C28.1064 6.05859 25.3232 3.95898 20.8799 3.95898ZM21.0264 46H0.738266V44.0957H6.59764V3.95898H0.738266V2.05469H23.0039C26.1289 2.05469 28.8144 2.56738 31.0605 3.59277C35.2598 5.59473 37.3594 8.98828 37.3594 13.7734C37.3594 15.9707 36.8711 17.9482 35.8945 19.7061C33.3066 24.2959 28.0332 26.5908 20.0742 26.5908H13.6289V44.0957H19.1221C19.3662 44.0957 19.6103 44.1201 19.8545 44.1689C20.6357 44.3154 21.0264 44.9258 21.0264 46ZM70.9734 46.7324C67.4578 46.6836 65.3826 44.4619 64.7478 40.0674C64.3084 41.1416 63.6492 42.1426 62.7703 43.0703C60.4265 45.5117 57.4724 46.7324 53.908 46.7324C52.4431 46.7324 51.0759 46.4883 49.8064 46C46.4373 44.6816 44.7527 42.0938 44.7527 38.2363C44.7527 37.6016 44.8015 37.0156 44.8992 36.4785C45.9246 30.9121 52.5164 28.1045 64.6746 28.0557V23.4414C64.6257 18.4609 62.4285 15.9219 58.0828 15.8242C56.2273 15.8242 54.8357 16.459 53.908 17.7285C53.7615 17.9727 53.3465 19.0469 52.6629 20.9512C52.0769 22.5137 51.1248 23.2949 49.8064 23.2949C49.5134 23.2949 49.1961 23.2705 48.8543 23.2217C47.3894 22.8799 46.657 21.9277 46.657 20.3652C46.657 19.5352 46.95 18.7051 47.5359 17.875C49.3914 15.2871 53.1511 13.9932 58.8152 13.9932C66.7742 14.042 70.8025 17.7773 70.9002 25.1992V40.6533C70.949 43.0459 71.5838 44.291 72.8045 44.3887C74.3181 44.3398 75.2459 42.5576 75.5877 39.042L77.492 39.1152C77.4431 39.9453 77.3699 40.7266 77.2722 41.459C76.5886 44.9746 74.489 46.7324 70.9734 46.7324ZM56.6179 43.7295C57.4968 43.7295 58.4246 43.5342 59.4011 43.1436C62.0867 41.874 63.8445 39.5547 64.6746 36.1855V30.1064C61.2566 30.1553 58.5955 30.3994 56.6912 30.8389C53.0779 31.7178 51.2713 33.793 51.2713 37.0645C51.2713 37.6016 51.2957 38.1143 51.3445 38.6025C51.784 42.0205 53.5418 43.7295 56.6179 43.7295ZM99.9732 44.1689C100.266 44.1689 100.51 44.1934 100.706 44.2422C101.438 44.3398 101.804 44.9258 101.804 46H83.2007V44.1689C84.6656 44.1689 85.7398 44.0713 86.4234 43.876C87.7417 43.4365 88.4009 42.0938 88.4009 39.8477V16.6299H83.2007V14.7988H94.2603L94.5533 21.8301C95.1392 20.4629 95.9205 19.2422 96.897 18.168C99.2408 15.6289 101.926 14.3594 104.954 14.3594C105.491 14.3594 106.003 14.4082 106.492 14.5059C108.738 14.9941 109.861 16.3613 109.861 18.6074C109.861 18.9492 109.812 19.3154 109.714 19.7061C109.226 21.2197 108.176 21.9766 106.565 21.9766C106.223 21.9766 105.881 21.9277 105.54 21.8301C104.758 21.5859 103.977 20.7803 103.196 19.4131C102.512 18.1924 101.804 17.582 101.072 17.582C100.486 17.582 99.7779 17.9238 98.9478 18.6074C96.4576 20.707 95.0415 23.8564 94.6998 28.0557V44.1689H99.9732ZM114.764 16.7031V14.8721H119.891V7.91406L126.117 6.37598V14.8721H137.176V16.7031H126.117V38.9688C126.165 42.6309 127.484 44.5107 130.072 44.6084C132.562 44.5596 134.32 42.3623 135.345 38.0166L137.323 38.3828C137.323 38.4316 137.323 38.4805 137.323 38.5293C136.2 44.0469 133.343 46.8057 128.753 46.8057C123.187 46.6104 120.233 43.3145 119.891 36.918V16.7031H114.764ZM148.744 57.6455C149.379 57.6455 150.038 57.5234 150.722 57.2793C153.066 56.2539 155.556 52.5918 158.192 46.293L144.789 16.7031H141.347V14.7988H156.215V16.7031H151.381L161.122 39.4814L170.277 16.7031H164.931V14.7988H176.064C176.064 15.2383 176.039 15.6045 175.99 15.8975C175.844 16.4346 175.258 16.7031 174.233 16.7031C173.842 16.7031 173.5 16.7275 173.207 16.7764C172.572 16.9717 172.011 17.7529 171.523 19.1201L160.683 46.2197C159.609 48.8564 158.51 51.1025 157.387 52.958C154.555 57.6455 151.21 59.9893 147.353 59.9893C146.181 59.9893 145.058 59.7695 143.984 59.3301C141.835 58.4512 140.761 57.1084 140.761 55.3018C140.761 55.1064 140.785 54.8867 140.834 54.6426C141.127 53.2754 142.079 52.5918 143.691 52.5918C144.276 52.5918 144.789 52.7383 145.229 53.0312C145.766 53.373 146.327 54.3008 146.913 55.8145C147.353 57.0352 147.963 57.6455 148.744 57.6455ZM215.537 34.3545C215.537 37.3818 214.438 39.9941 212.241 42.1914C209.116 45.2188 204.722 46.7324 199.058 46.7324C194.175 46.7324 189.853 45.4873 186.094 42.9971C186.094 43.9736 186.045 44.6816 185.947 45.1211C185.703 45.8047 184.995 46.1465 183.823 46.1465V30.9121H186.167C186.216 31.4004 186.265 31.9131 186.313 32.4502C187.436 40.6045 191.538 44.6816 198.618 44.6816C200.425 44.6816 202.085 44.3643 203.599 43.7295C206.821 42.2646 208.433 39.8232 208.433 36.4053C208.433 35.1357 208.14 33.9639 207.554 32.8896C206.382 30.8389 203.623 28.8369 199.277 26.8838C194.541 24.7354 191.758 23.417 190.928 22.9287C186.387 20.3408 184.116 16.9961 184.116 12.8945C184.116 10.1113 185.117 7.71875 187.119 5.7168C190.098 2.78711 194.248 1.32227 199.57 1.32227C203.916 1.32227 207.895 2.27441 211.509 4.17871C211.509 3.69043 211.558 3.27539 211.655 2.93359C211.802 2.10352 212.51 1.68848 213.779 1.68848V14.5791H211.435C211.484 11.7959 210.776 9.45215 209.311 7.54785C207.212 4.76465 204.136 3.37305 200.083 3.37305C198.52 3.37305 197.08 3.6416 195.762 4.17871C192.734 5.39941 191.221 7.57227 191.221 10.6973C191.221 11.8691 191.489 12.9922 192.026 14.0664C193.149 16.0684 195.859 18.0215 200.156 19.9258C204.941 22.0742 207.725 23.3926 208.506 23.8809C213.193 26.5664 215.537 30.0576 215.537 34.3545ZM237.579 16.6299H232.305L241.241 41.3857L247.027 23.7344L243.878 14.7988H255.67V16.6299H250.689L259.039 41.0928L266.949 16.6299H261.895V14.7988H272.662C272.662 15.043 272.637 15.2627 272.589 15.458C272.491 16.2393 271.905 16.6299 270.831 16.6299C270.587 16.6299 270.342 16.6543 270.098 16.7031C269.366 16.8496 268.756 17.6797 268.267 19.1934L259.332 46.3662H257.94C257.061 46.3662 256.378 46.2441 255.889 46C254.962 45.5605 254.034 43.9492 253.106 41.166L248.052 26.8105L241.607 46.3662H239.996C239.166 46.3662 238.507 46.2686 238.018 46.0732C236.944 45.585 235.894 43.9492 234.869 41.166L225.86 16.6299H222.637V14.7988H237.579V16.6299ZM293.165 44.1689C293.458 44.1689 293.703 44.1934 293.898 44.2422C294.63 44.3398 294.997 44.9258 294.997 46H277.931V44.1689C279.396 44.1689 280.495 44.0713 281.227 43.876C282.741 43.4365 283.497 42.0938 283.497 39.8477V16.6299H277.931V14.7988H289.723V44.1689H293.165ZM290.529 4.3252C290.529 4.95996 290.382 5.59473 290.089 6.22949C289.308 7.84082 288.039 8.64648 286.281 8.64648C285.646 8.64648 285.036 8.52441 284.45 8.28027C282.789 7.49902 281.959 6.18066 281.959 4.3252C281.959 3.69043 282.106 3.05566 282.399 2.4209C283.18 0.80957 284.474 0.00390625 286.281 0.00390625C286.915 0.00390625 287.55 0.150391 288.185 0.443359C289.747 1.27344 290.529 2.56738 290.529 4.3252ZM313.523 58.085H318.357C318.65 58.085 318.894 58.1094 319.089 58.1582C319.822 58.2559 320.188 58.8418 320.188 59.916H302.024V58.085C303.489 58.085 304.587 57.9629 305.32 57.7188C306.589 57.2793 307.224 55.9609 307.224 53.7637V16.6299H302.024V14.7988H313.01L313.376 22.5625C313.816 21.293 314.426 20.1211 315.207 19.0469C317.6 15.6777 320.993 13.9932 325.388 13.9932C328.366 13.9932 330.93 14.9453 333.078 16.8496C336.252 19.7305 337.839 23.9785 337.839 29.5938C337.839 34.4766 336.472 38.5049 333.738 41.6787C330.808 45.0479 327.121 46.7324 322.678 46.7324C319.114 46.5371 316.062 45.292 313.523 42.9971V58.085ZM322.751 17.0693C321.091 17.0693 319.553 17.6064 318.137 18.6807C315.012 21.1221 313.449 25.4922 313.449 31.791C313.449 34.5742 313.791 36.9668 314.475 38.9688C315.891 42.9238 318.381 44.9014 321.946 44.9014C323.069 44.9014 324.118 44.6816 325.095 44.2422C328.952 42.4844 330.881 37.8701 330.881 30.3994C330.881 28.8857 330.783 27.4453 330.588 26.0781C329.709 20.0723 327.097 17.0693 322.751 17.0693ZM362.078 15.8242C360.906 15.8242 359.808 16.0928 358.782 16.6299C355.462 18.3389 353.704 22.0742 353.509 27.8359L360.687 28.0557C362.835 28.1045 364.52 27.9824 365.74 27.6895C367.889 27.1523 368.963 25.6875 368.963 23.2949C368.963 22.2695 368.816 21.293 368.523 20.3652C367.547 17.3379 365.398 15.8242 362.078 15.8242ZM375.042 38.8955C374.749 39.5303 374.432 40.165 374.09 40.7998C371.6 44.7549 367.62 46.7324 362.151 46.7324C358.88 46.7324 355.95 45.9268 353.362 44.3154C348.821 41.3857 346.551 36.7959 346.551 30.5459C346.551 26.9814 347.332 23.832 348.895 21.0977C351.678 16.3613 356.023 13.9932 361.932 13.9932C365.057 13.9932 367.84 14.6523 370.281 15.9707C373.797 17.9727 375.555 20.707 375.555 24.1738C375.555 25.834 374.993 27.1523 373.87 28.1289C372.161 29.4961 368.182 30.1309 361.932 30.0332L353.509 29.8867C353.558 31.6934 353.704 33.3535 353.948 34.8672C355.12 41.4102 358.294 44.6816 363.47 44.6816C364.202 44.6816 364.959 44.6084 365.74 44.4619C369.158 43.7295 371.648 41.6543 373.211 38.2363L375.042 38.8955Z" fill="#3C8493"/>
</svg>
