<svg width="1280" height="394" viewBox="0 0 1280 394" fill="none" xmlns="http://www.w3.org/2000/svg">
<g filter="url(#filter0_d_122_3440)">
<path d="M1229.5 -2.01115C1204.24 -0.226718 1189.7 51.112 1168.26 64.5944C1146.82 78.0768 1119.15 53.2867 1106.6 75.2831C1094.05 97.2795 1015.74 158.968 1015.04 184.284C1014.34 209.599 1091.27 197.761 1102.58 220.418C1194.53 97.2881 1130.63 262.591 1151.29 277.238C1171.95 291.885 1195.9 301.21 1221.03 304.389C1246.15 307.567 1271.68 304.5 1295.33 295.459C1318.99 286.418 1340.05 271.682 1356.65 252.557L1240.36 151.606L1229.5 -2.01115Z" fill="#DD722E"/>
</g>
<g filter="url(#filter1_d_122_3440)">
<path d="M0 -2H1280V188.5C1280 188.5 406.5 8 365.5 126C324.5 244 0 175 0 175V-2Z" fill="url(#paint0_linear_122_3440)"/>
</g>
<g filter="url(#filter2_d_122_3440)">
<path d="M36.3396 63.2645H30.8661V78.7452H35.5656C35.9342 78.7452 36.3212 78.7268 36.7266 78.6899C40.8917 78.2476 42.9742 75.6306 42.9742 70.839C42.9742 69.8438 42.8636 68.9039 42.6425 68.0193C41.7947 64.8494 39.6938 63.2645 36.3396 63.2645ZM36.4502 95H21.1353V93.5625H25.5584V63.2645H21.1353V61.827H37.943C40.3019 61.827 42.3292 62.214 44.0247 62.988C47.1946 64.4992 48.7795 67.0609 48.7795 70.6731C48.7795 72.3318 48.4109 73.8245 47.6737 75.1515C45.7202 78.6162 41.7394 80.3486 35.7314 80.3486H30.8661V93.5625H35.0127C35.197 93.5625 35.3813 93.5809 35.5656 93.6178C36.1553 93.7284 36.4502 94.1891 36.4502 95ZM74.9248 95.5529C72.2709 95.516 70.7044 93.8389 70.2253 90.5216C69.8935 91.3325 69.3959 92.0881 68.7325 92.7885C66.9632 94.6314 64.7333 95.5529 62.0426 95.5529C60.9368 95.5529 59.9048 95.3686 58.9464 95C56.4032 94.0048 55.1315 92.0513 55.1315 89.1394C55.1315 88.6603 55.1684 88.218 55.2421 87.8125C56.0161 83.6106 60.9921 81.4912 70.17 81.4543V77.9712C70.1331 74.2116 68.4745 72.2949 65.194 72.2212C63.7934 72.2212 62.7429 72.7003 62.0426 73.6587C61.932 73.843 61.6187 74.6539 61.1027 76.0914C60.6604 77.2709 59.9416 77.8606 58.9464 77.8606C58.7253 77.8606 58.4857 77.8422 58.2277 77.8053C57.1219 77.5473 56.569 76.8285 56.569 75.6491C56.569 75.0225 56.7902 74.3959 57.2325 73.7693C58.6331 71.8157 61.4713 70.839 65.7469 70.839C71.7549 70.8758 74.7958 73.6955 74.8695 79.2981V90.9639C74.9063 92.77 75.3855 93.7099 76.307 93.7837C77.4496 93.7468 78.1499 92.4014 78.4079 89.7476L79.8454 89.8029C79.8086 90.4295 79.7533 91.0192 79.6796 91.5721C79.1635 94.226 77.5786 95.5529 74.9248 95.5529ZM64.0882 93.2861C64.7517 93.2861 65.452 93.1386 66.1892 92.8438C68.2164 91.8854 69.5434 90.1346 70.17 87.5914V83.0024C67.5898 83.0393 65.581 83.2236 64.1435 83.5553C61.416 84.2188 60.0522 85.7853 60.0522 88.2548C60.0522 88.6603 60.0706 89.0473 60.1075 89.4159C60.4392 91.996 61.7661 93.2861 64.0882 93.2861ZM97.5869 93.6178C97.808 93.6178 97.9923 93.6362 98.1398 93.6731C98.6926 93.7468 98.9691 94.1891 98.9691 95H84.9258V93.6178C86.0316 93.6178 86.8425 93.5441 87.3585 93.3966C88.3537 93.0649 88.8513 92.0513 88.8513 90.3558V72.8294H84.9258V71.4471H93.2744L93.4955 76.7548C93.9378 75.7228 94.5276 74.8013 95.2648 73.9904C97.034 72.0737 99.0612 71.1154 101.346 71.1154C101.752 71.1154 102.139 71.1523 102.508 71.226C104.203 71.5946 105.051 72.6266 105.051 74.3221C105.051 74.5802 105.014 74.8566 104.94 75.1515C104.572 76.2941 103.779 76.8654 102.563 76.8654C102.305 76.8654 102.047 76.8285 101.789 76.7548C101.199 76.5705 100.609 75.9624 100.02 74.9303C99.5035 74.0088 98.9691 73.5481 98.4162 73.5481C97.9739 73.5481 97.4394 73.8061 96.8128 74.3221C94.933 75.9071 93.8641 78.2845 93.6061 81.4543V93.6178H97.5869ZM109.523 72.8846V71.5024H113.393V66.25L118.093 65.089V71.5024H126.441V72.8846H118.093V89.6923C118.13 92.4567 119.125 93.8758 121.078 93.9495C122.958 93.9127 124.285 92.254 125.059 88.9736L126.552 89.25C126.552 89.2869 126.552 89.3237 126.552 89.3606C125.704 93.5256 123.548 95.6082 120.083 95.6082C115.881 95.4607 113.651 92.9728 113.393 88.1442V72.8846H109.523ZM135.945 103.791C136.424 103.791 136.921 103.699 137.438 103.514C139.207 102.74 141.087 99.976 143.077 95.2212L132.959 72.8846H130.361V71.4471H141.584V72.8846H137.935L145.288 90.0793L152.2 72.8846H148.163V71.4471H156.567C156.567 71.7789 156.549 72.0553 156.512 72.2765C156.401 72.6819 155.959 72.8846 155.185 72.8846C154.89 72.8846 154.632 72.9031 154.411 72.9399C153.932 73.0874 153.508 73.6771 153.139 74.7092L144.957 95.1659C144.146 97.1562 143.317 98.8518 142.469 100.252C140.331 103.791 137.806 105.56 134.894 105.56C134.01 105.56 133.162 105.394 132.351 105.062C130.729 104.399 129.918 103.385 129.918 102.022C129.918 101.874 129.937 101.708 129.974 101.524C130.195 100.492 130.913 99.976 132.13 99.976C132.572 99.976 132.959 100.087 133.291 100.308C133.696 100.566 134.12 101.266 134.563 102.409C134.894 103.33 135.355 103.791 135.945 103.791ZM187.136 86.2091C187.136 88.4944 186.306 90.4664 184.648 92.125C182.289 94.4103 178.971 95.5529 174.696 95.5529C171.01 95.5529 167.748 94.613 164.91 92.7332C164.91 93.4704 164.873 94.0048 164.799 94.3365C164.615 94.8526 164.08 95.1106 163.196 95.1106V83.6106H164.965C165.002 83.9792 165.039 84.3662 165.076 84.7716C165.923 90.9271 169.019 94.0048 174.364 94.0048C175.728 94.0048 176.981 93.7652 178.124 93.2861C180.556 92.1803 181.773 90.3373 181.773 87.7572C181.773 86.7989 181.552 85.9143 181.109 85.1034C180.225 83.5553 178.142 82.0441 174.862 80.5697C171.286 78.9479 169.185 77.9527 168.559 77.5842C165.131 75.6306 163.417 73.1058 163.417 70.0096C163.417 67.9087 164.173 66.1026 165.684 64.5914C167.932 62.3798 171.065 61.2741 175.083 61.2741C178.363 61.2741 181.367 61.9928 184.095 63.4303C184.095 63.0617 184.132 62.7484 184.205 62.4904C184.316 61.8638 184.85 61.5505 185.809 61.5505V71.2813H184.04C184.076 69.1803 183.542 67.4111 182.436 65.9736C180.851 63.8726 178.529 62.8222 175.47 62.8222C174.29 62.8222 173.203 63.0249 172.208 63.4303C169.923 64.3518 168.78 65.992 168.78 68.351C168.78 69.2356 168.983 70.0834 169.388 70.8943C170.236 72.4055 172.282 73.8798 175.525 75.3173C179.137 76.9391 181.238 77.9343 181.828 78.3029C185.366 80.3301 187.136 82.9656 187.136 86.2091ZM204.545 72.8294H200.565L207.31 91.5168L211.678 78.1923L209.3 71.4471H218.202V72.8294H214.442L220.745 91.2957L226.716 72.8294H222.901V71.4471H231.028C231.028 71.6314 231.01 71.7973 230.973 71.9447C230.899 72.5345 230.457 72.8294 229.646 72.8294C229.462 72.8294 229.278 72.8478 229.093 72.8846C228.541 72.9952 228.08 73.6218 227.711 74.7644L220.966 95.2764H219.916C219.252 95.2764 218.736 95.1843 218.367 95C217.667 94.6683 216.967 93.4519 216.266 91.351L212.452 80.5144L207.586 95.2764H206.37C205.743 95.2764 205.246 95.2027 204.877 95.0553C204.066 94.6867 203.274 93.4519 202.5 91.351L195.699 72.8294H193.267V71.4471H204.545V72.8294ZM247.277 93.6178C247.498 93.6178 247.683 93.6362 247.83 93.6731C248.383 93.7468 248.659 94.1891 248.659 95H235.777V93.6178C236.883 93.6178 237.712 93.5441 238.265 93.3966C239.408 93.0649 239.979 92.0513 239.979 90.3558V72.8294H235.777V71.4471H244.679V93.6178H247.277ZM245.287 63.5409C245.287 64.0201 245.176 64.4992 244.955 64.9784C244.365 66.1947 243.407 66.8029 242.08 66.8029C241.601 66.8029 241.14 66.7108 240.698 66.5265C239.445 65.9367 238.818 64.9415 238.818 63.5409C238.818 63.0617 238.929 62.5826 239.15 62.1034C239.739 60.8871 240.716 60.2789 242.08 60.2789C242.559 60.2789 243.038 60.3895 243.518 60.6106C244.697 61.2372 245.287 62.214 245.287 63.5409ZM263.415 104.123H267.064C267.285 104.123 267.47 104.141 267.617 104.178C268.17 104.252 268.446 104.694 268.446 105.505H254.735V104.123C255.841 104.123 256.67 104.03 257.223 103.846C258.181 103.514 258.66 102.519 258.66 100.861V72.8294H254.735V71.4471H263.028L263.305 77.3077C263.636 76.3494 264.097 75.4648 264.687 74.6539C266.493 72.1106 269.055 70.839 272.372 70.839C274.62 70.839 276.555 71.5577 278.177 72.9952C280.573 75.1699 281.771 78.3766 281.771 82.6154C281.771 86.3013 280.739 89.3422 278.675 91.738C276.463 94.2813 273.68 95.5529 270.326 95.5529C267.636 95.4054 265.332 94.4655 263.415 92.7332V104.123ZM270.382 73.1611C269.128 73.1611 267.967 73.5665 266.898 74.3774C264.539 76.2204 263.36 79.5192 263.36 84.2741C263.36 86.375 263.618 88.1811 264.134 89.6923C265.203 92.6779 267.083 94.1707 269.773 94.1707C270.621 94.1707 271.414 94.0048 272.151 93.6731C275.063 92.3462 276.519 88.863 276.519 83.2236C276.519 82.0809 276.445 80.9936 276.297 79.9616C275.634 75.4279 273.662 73.1611 270.382 73.1611ZM300.839 72.2212C299.955 72.2212 299.125 72.4239 298.351 72.8294C295.845 74.1194 294.518 76.9391 294.371 81.2885L299.789 81.4543C301.411 81.4912 302.682 81.3991 303.604 81.1779C305.226 80.7725 306.036 79.6667 306.036 77.8606C306.036 77.0866 305.926 76.3494 305.705 75.6491C304.968 73.3638 303.346 72.2212 300.839 72.2212ZM310.625 89.637C310.404 90.1162 310.165 90.5954 309.907 91.0745C308.027 94.0601 305.023 95.5529 300.895 95.5529C298.425 95.5529 296.214 94.9447 294.26 93.7284C290.832 91.5168 289.118 88.0521 289.118 83.3341C289.118 80.6434 289.708 78.266 290.887 76.2019C292.988 72.6266 296.269 70.839 300.729 70.839C303.088 70.839 305.189 71.3366 307.032 72.3318C309.685 73.843 311.012 75.9071 311.012 78.5241C311.012 79.7773 310.588 80.7725 309.741 81.5096C308.451 82.5417 305.447 83.0208 300.729 82.9471L294.371 82.8366C294.407 84.2003 294.518 85.4535 294.702 86.5962C295.587 91.5353 297.983 94.0048 301.89 94.0048C302.443 94.0048 303.014 93.9495 303.604 93.8389C306.184 93.2861 308.064 91.7196 309.243 89.1394L310.625 89.637Z" fill="white"/>
<g filter="url(#filter3_d_122_3440)">
<path d="M282.04 110.022C278.862 118.428 227.977 114.827 161.286 114.827C94.5959 114.827 30.9995 124.687 30.9995 122.034C30.9995 119.38 81.885 110.022 148.575 110.022C215.266 110.022 289.984 95.6067 282.04 110.022Z" fill="white"/>
</g>
</g>
<defs>
<filter id="filter0_d_122_3440" x="1011.04" y="-2.01123" width="349.615" height="315.617" filterUnits="userSpaceOnUse" color-interpolation-filters="sRGB">
<feFlood flood-opacity="0" result="BackgroundImageFix"/>
<feColorMatrix in="SourceAlpha" type="matrix" values="0 0 0 0 0 0 0 0 0 0 0 0 0 0 0 0 0 0 127 0" result="hardAlpha"/>
<feOffset dy="4"/>
<feGaussianBlur stdDeviation="2"/>
<feComposite in2="hardAlpha" operator="out"/>
<feColorMatrix type="matrix" values="0 0 0 0 0 0 0 0 0 0 0 0 0 0 0 0 0 0 0.25 0"/>
<feBlend mode="normal" in2="BackgroundImageFix" result="effect1_dropShadow_122_3440"/>
<feBlend mode="normal" in="SourceGraphic" in2="effect1_dropShadow_122_3440" result="shape"/>
</filter>
<filter id="filter1_d_122_3440" x="-4" y="-2" width="1288" height="205.051" filterUnits="userSpaceOnUse" color-interpolation-filters="sRGB">
<feFlood flood-opacity="0" result="BackgroundImageFix"/>
<feColorMatrix in="SourceAlpha" type="matrix" values="0 0 0 0 0 0 0 0 0 0 0 0 0 0 0 0 0 0 127 0" result="hardAlpha"/>
<feOffset dy="4"/>
<feGaussianBlur stdDeviation="2"/>
<feComposite in2="hardAlpha" operator="out"/>
<feColorMatrix type="matrix" values="0 0 0 0 0 0 0 0 0 0 0 0 0 0 0 0 0 0 0.25 0"/>
<feBlend mode="normal" in2="BackgroundImageFix" result="effect1_dropShadow_122_3440"/>
<feBlend mode="normal" in="SourceGraphic" in2="effect1_dropShadow_122_3440" result="shape"/>
</filter>
<filter id="filter2_d_122_3440" x="17.1353" y="60.2788" width="297.877" height="70.2083" filterUnits="userSpaceOnUse" color-interpolation-filters="sRGB">
<feFlood flood-opacity="0" result="BackgroundImageFix"/>
<feColorMatrix in="SourceAlpha" type="matrix" values="0 0 0 0 0 0 0 0 0 0 0 0 0 0 0 0 0 0 127 0" result="hardAlpha"/>
<feOffset dy="4"/>
<feGaussianBlur stdDeviation="2"/>
<feComposite in2="hardAlpha" operator="out"/>
<feColorMatrix type="matrix" values="0 0 0 0 0 0 0 0 0 0 0 0 0 0 0 0 0 0 0.25 0"/>
<feBlend mode="normal" in2="BackgroundImageFix" result="effect1_dropShadow_122_3440"/>
<feBlend mode="normal" in="SourceGraphic" in2="effect1_dropShadow_122_3440" result="shape"/>
</filter>
<filter id="filter3_d_122_3440" x="26.9995" y="103.615" width="259.624" height="26.8718" filterUnits="userSpaceOnUse" color-interpolation-filters="sRGB">
<feFlood flood-opacity="0" result="BackgroundImageFix"/>
<feColorMatrix in="SourceAlpha" type="matrix" values="0 0 0 0 0 0 0 0 0 0 0 0 0 0 0 0 0 0 127 0" result="hardAlpha"/>
<feOffset dy="4"/>
<feGaussianBlur stdDeviation="2"/>
<feComposite in2="hardAlpha" operator="out"/>
<feColorMatrix type="matrix" values="0 0 0 0 0 0 0 0 0 0 0 0 0 0 0 0 0 0 0.25 0"/>
<feBlend mode="normal" in2="BackgroundImageFix" result="effect1_dropShadow_122_3440"/>
<feBlend mode="normal" in="SourceGraphic" in2="effect1_dropShadow_122_3440" result="shape"/>
</filter>
<linearGradient id="paint0_linear_122_3440" x1="364" y1="-50" x2="428.5" y2="325.5" gradientUnits="userSpaceOnUse">
<stop offset="0.405" stop-color="#3C8493"/>
<stop offset="1" stop-color="#12282D"/>
</linearGradient>
</defs>
</svg>
