<svg width="390" height="844" viewBox="0 0 390 844" fill="none" xmlns="http://www.w3.org/2000/svg">
<rect width="390" height="844" fill="#1E1E1E"/>
<path d="M-3741 -2057C-3741 -2058.1 -3740.1 -2059 -3739 -2059H4184C4185.1 -2059 4186 -2058.1 4186 -2057V2246C4186 2247.1 4185.1 2248 4184 2248H-3739C-3740.1 2248 -3741 2247.1 -3741 2246V-2057Z" fill="#404040"/>
<path d="M-3739 -2058H4184V-2060H-3739V-2058ZM4185 -2057V2246H4187V-2057H4185ZM4184 2247H-3739V2249H4184V2247ZM-3740 2246V-2057H-3742V2246H-3740ZM-3739 2247C-3739.55 2247 -3740 2246.55 -3740 2246H-3742C-3742 2247.66 -3740.66 2249 -3739 2249V2247ZM4185 2246C4185 2246.55 4184.55 2247 4184 2247V2249C4185.66 2249 4187 2247.66 4187 2246H4185ZM4184 -2058C4184.55 -2058 4185 -2057.55 4185 -2057H4187C4187 -2058.66 4185.66 -2060 4184 -2060V-2058ZM-3739 -2060C-3740.66 -2060 -3742 -2058.66 -3742 -2057H-3740C-3740 -2057.55 -3739.55 -2058 -3739 -2058V-2060Z" fill="white" fill-opacity="0.1"/>
<g clip-path="url(#clip0_0_1)">
<rect width="390" height="844" fill="white"/>
<path d="M-1 0H397V71L128.605 60L-1 71V0Z" fill="#DD722E"/>
<path d="M148.13 25.668H146.003V31.6836H147.829C147.972 31.6836 148.123 31.6764 148.28 31.6621C149.899 31.4902 150.708 30.4733 150.708 28.6113C150.708 28.2246 150.665 27.8594 150.579 27.5156C150.25 26.2839 149.433 25.668 148.13 25.668ZM148.173 38H142.222V37.4414H143.94V25.668H142.222V25.1094H148.753C149.67 25.1094 150.457 25.2598 151.116 25.5605C152.348 26.1478 152.964 27.1432 152.964 28.5469C152.964 29.1914 152.821 29.7715 152.534 30.2871C151.775 31.6335 150.228 32.3066 147.894 32.3066H146.003V37.4414H147.614C147.686 37.4414 147.757 37.4486 147.829 37.4629C148.058 37.5059 148.173 37.6849 148.173 38ZM162.901 38.2148C161.87 38.2005 161.261 37.5488 161.075 36.2598C160.946 36.5749 160.753 36.8685 160.495 37.1406C159.808 37.8568 158.941 38.2148 157.896 38.2148C157.466 38.2148 157.065 38.1432 156.692 38C155.704 37.6133 155.21 36.8542 155.21 35.7227C155.21 35.5365 155.224 35.3646 155.253 35.207C155.554 33.5742 157.487 32.7507 161.054 32.7363V31.3828C161.039 29.9219 160.395 29.1771 159.12 29.1484C158.576 29.1484 158.168 29.3346 157.896 29.707C157.853 29.7786 157.731 30.0938 157.53 30.6523C157.358 31.1107 157.079 31.3398 156.692 31.3398C156.606 31.3398 156.513 31.3327 156.413 31.3184C155.983 31.2181 155.769 30.9388 155.769 30.4805C155.769 30.237 155.854 29.9935 156.026 29.75C156.571 28.9909 157.674 28.6113 159.335 28.6113C161.67 28.6257 162.851 29.7214 162.88 31.8984V36.4316C162.894 37.1335 163.08 37.4987 163.438 37.5273C163.882 37.513 164.155 36.9902 164.255 35.959L164.813 35.9805C164.799 36.224 164.778 36.4531 164.749 36.668C164.549 37.6992 163.933 38.2148 162.901 38.2148ZM158.69 37.334C158.948 37.334 159.22 37.2767 159.507 37.1621C160.295 36.7897 160.81 36.1094 161.054 35.1211V33.3379C160.051 33.3522 159.271 33.4238 158.712 33.5527C157.652 33.8105 157.122 34.4193 157.122 35.3789C157.122 35.5365 157.129 35.6868 157.144 35.8301C157.272 36.8327 157.788 37.334 158.69 37.334ZM171.485 37.4629C171.571 37.4629 171.643 37.4701 171.7 37.4844C171.915 37.513 172.022 37.6849 172.022 38H166.565V37.4629C166.995 37.4629 167.31 37.4342 167.511 37.377C167.897 37.248 168.091 36.8542 168.091 36.1953V29.3848H166.565V28.8477H169.81L169.896 30.9102C170.067 30.5091 170.297 30.151 170.583 29.8359C171.271 29.0911 172.058 28.7188 172.946 28.7188C173.104 28.7188 173.254 28.7331 173.397 28.7617C174.056 28.9049 174.386 29.306 174.386 29.9648C174.386 30.0651 174.371 30.1725 174.343 30.2871C174.2 30.7311 173.892 30.9531 173.419 30.9531C173.319 30.9531 173.218 30.9388 173.118 30.9102C172.889 30.8385 172.66 30.6022 172.431 30.2012C172.23 29.8431 172.022 29.6641 171.808 29.6641C171.636 29.6641 171.428 29.7643 171.185 29.9648C170.454 30.5807 170.039 31.5046 169.938 32.7363V37.4629H171.485ZM175.901 29.4062V28.8691H177.405V26.8281L179.231 26.377V28.8691H182.476V29.4062H179.231V35.9375C179.246 37.0117 179.632 37.5632 180.392 37.5918C181.122 37.5775 181.638 36.9329 181.938 35.6582L182.519 35.7656C182.519 35.7799 182.519 35.7943 182.519 35.8086C182.189 37.4271 181.351 38.2363 180.005 38.2363C178.372 38.179 177.506 37.2122 177.405 35.3359V29.4062H175.901ZM185.946 41.416C186.132 41.416 186.326 41.3802 186.526 41.3086C187.214 41.0078 187.944 39.9336 188.718 38.0859L184.786 29.4062H183.776V28.8477H188.138V29.4062H186.72L189.577 36.0879L192.263 29.4062H190.694V28.8477H193.96C193.96 28.9766 193.953 29.084 193.938 29.1699C193.896 29.3275 193.724 29.4062 193.423 29.4062C193.308 29.4062 193.208 29.4134 193.122 29.4277C192.936 29.485 192.771 29.7142 192.628 30.1152L189.448 38.0645C189.133 38.8379 188.811 39.4967 188.481 40.041C187.651 41.416 186.67 42.1035 185.538 42.1035C185.194 42.1035 184.865 42.0391 184.55 41.9102C183.92 41.6523 183.604 41.2585 183.604 40.7285C183.604 40.6712 183.612 40.6068 183.626 40.5352C183.712 40.1341 183.991 39.9336 184.464 39.9336C184.636 39.9336 184.786 39.9766 184.915 40.0625C185.073 40.1628 185.237 40.4349 185.409 40.8789C185.538 41.237 185.717 41.416 185.946 41.416ZM205.616 34.584C205.616 35.472 205.294 36.2383 204.649 36.8828C203.733 37.7708 202.444 38.2148 200.782 38.2148C199.35 38.2148 198.082 37.8496 196.979 37.1191C196.979 37.4056 196.965 37.6133 196.937 37.7422C196.865 37.9427 196.657 38.043 196.313 38.043V33.5742H197.001C197.015 33.7174 197.03 33.8678 197.044 34.0254C197.373 36.4173 198.576 37.6133 200.653 37.6133C201.183 37.6133 201.67 37.5202 202.114 37.334C203.06 36.9043 203.532 36.1882 203.532 35.1855C203.532 34.8132 203.446 34.4694 203.274 34.1543C202.931 33.5527 202.121 32.9655 200.847 32.3926C199.457 31.7624 198.641 31.3757 198.397 31.2324C197.065 30.4733 196.399 29.4922 196.399 28.2891C196.399 27.4727 196.693 26.7708 197.28 26.1836C198.154 25.3242 199.371 24.8945 200.933 24.8945C202.207 24.8945 203.375 25.1738 204.435 25.7324C204.435 25.5892 204.449 25.4674 204.478 25.3672C204.521 25.1237 204.728 25.002 205.101 25.002V28.7832H204.413C204.427 27.9668 204.22 27.2793 203.79 26.7207C203.174 25.9043 202.272 25.4961 201.083 25.4961C200.625 25.4961 200.202 25.5749 199.815 25.7324C198.927 26.0905 198.483 26.7279 198.483 27.6445C198.483 27.9883 198.562 28.3177 198.72 28.6328C199.049 29.2201 199.844 29.793 201.104 30.3516C202.508 30.9818 203.325 31.3685 203.554 31.5117C204.929 32.2995 205.616 33.3236 205.616 34.584ZM212.159 29.3848H210.612L213.233 36.6465L214.931 31.4688L214.007 28.8477H217.466V29.3848H216.005L218.454 36.5605L220.774 29.3848H219.292V28.8477H222.45C222.45 28.9193 222.443 28.9837 222.429 29.041C222.4 29.2702 222.228 29.3848 221.913 29.3848C221.841 29.3848 221.77 29.3919 221.698 29.4062C221.483 29.4492 221.304 29.6927 221.161 30.1367L218.54 38.1074H218.132C217.874 38.1074 217.674 38.0716 217.53 38C217.258 37.8711 216.986 37.3984 216.714 36.582L215.231 32.3711L213.341 38.1074H212.868C212.625 38.1074 212.431 38.0788 212.288 38.0215C211.973 37.8783 211.665 37.3984 211.364 36.582L208.722 29.3848H207.776V28.8477H212.159V29.3848ZM228.542 37.4629C228.628 37.4629 228.7 37.4701 228.757 37.4844C228.972 37.513 229.079 37.6849 229.079 38H224.073V37.4629C224.503 37.4629 224.825 37.4342 225.04 37.377C225.484 37.248 225.706 36.8542 225.706 36.1953V29.3848H224.073V28.8477H227.532V37.4629H228.542ZM227.769 25.7754C227.769 25.9616 227.726 26.1478 227.64 26.334C227.41 26.8066 227.038 27.043 226.522 27.043C226.336 27.043 226.157 27.0072 225.985 26.9355C225.498 26.7064 225.255 26.3197 225.255 25.7754C225.255 25.5892 225.298 25.403 225.384 25.2168C225.613 24.7441 225.993 24.5078 226.522 24.5078C226.709 24.5078 226.895 24.5508 227.081 24.6367C227.539 24.8802 227.769 25.2598 227.769 25.7754ZM234.591 41.5449H236.009C236.095 41.5449 236.166 41.5521 236.224 41.5664C236.438 41.5951 236.546 41.7669 236.546 42.082H231.218V41.5449C231.647 41.5449 231.97 41.5091 232.185 41.4375C232.557 41.3086 232.743 40.9219 232.743 40.2773V29.3848H231.218V28.8477H234.44L234.548 31.125C234.677 30.7526 234.856 30.4089 235.085 30.0938C235.787 29.1055 236.782 28.6113 238.071 28.6113C238.945 28.6113 239.697 28.8906 240.327 29.4492C241.258 30.2943 241.724 31.5404 241.724 33.1875C241.724 34.6198 241.323 35.8014 240.521 36.7324C239.661 37.7207 238.58 38.2148 237.276 38.2148C236.231 38.1576 235.336 37.7923 234.591 37.1191V41.5449ZM237.298 29.5137C236.811 29.5137 236.36 29.6712 235.944 29.9863C235.028 30.7025 234.569 31.9844 234.569 33.832C234.569 34.6484 234.67 35.3503 234.87 35.9375C235.285 37.0977 236.016 37.6777 237.062 37.6777C237.391 37.6777 237.699 37.6133 237.985 37.4844C239.117 36.9688 239.683 35.6152 239.683 33.4238C239.683 32.9798 239.654 32.5573 239.597 32.1562C239.339 30.3945 238.573 29.5137 237.298 29.5137ZM248.911 29.1484C248.567 29.1484 248.245 29.2272 247.944 29.3848C246.97 29.8861 246.455 30.9818 246.397 32.6719L248.503 32.7363C249.133 32.7507 249.627 32.7148 249.985 32.6289C250.616 32.4714 250.931 32.0417 250.931 31.3398C250.931 31.0391 250.888 30.7526 250.802 30.4805C250.515 29.5924 249.885 29.1484 248.911 29.1484ZM252.714 35.916C252.628 36.1022 252.535 36.2884 252.435 36.4746C251.704 37.6348 250.537 38.2148 248.933 38.2148C247.973 38.2148 247.114 37.9785 246.354 37.5059C245.022 36.6465 244.356 35.3001 244.356 33.4668C244.356 32.4212 244.586 31.4974 245.044 30.6953C245.86 29.306 247.135 28.6113 248.868 28.6113C249.785 28.6113 250.601 28.8047 251.317 29.1914C252.349 29.7786 252.864 30.5807 252.864 31.5977C252.864 32.0846 252.7 32.4714 252.37 32.7578C251.869 33.1589 250.701 33.3451 248.868 33.3164L246.397 33.2734C246.412 33.8034 246.455 34.2904 246.526 34.7344C246.87 36.6536 247.801 37.6133 249.319 37.6133C249.534 37.6133 249.756 37.5918 249.985 37.5488C250.988 37.334 251.718 36.7253 252.177 35.7227L252.714 35.916Z" fill="white"/>
<path d="M233.814 46.037C232.804 48.7096 216.626 47.5645 195.423 47.5645C174.219 47.5645 154 50.6995 154 49.8559C154 49.0122 170.178 46.037 191.381 46.037C212.585 46.037 236.34 41.4538 233.814 46.037Z" fill="white"/>
</g>
<defs>
<clipPath id="clip0_0_1">
<rect width="390" height="844" fill="white"/>
</clipPath>
</defs>
</svg>
