<svg width="1280" height="394" viewBox="0 0 1280 394" fill="none" xmlns="http://www.w3.org/2000/svg">
<g filter="url(#filter0_d_122_3440)">
<path d="M1229.5 -2.01115C1204.24 -0.226712 1189.7 51.112 1168.26 64.5944C1146.82 78.0768 1119.15 53.2867 1106.6 75.2831C1094.05 97.2795 1015.74 158.968 1015.04 184.284C1014.34 209.599 1091.27 197.761 1102.58 220.418C1194.53 97.2881 1130.63 262.591 1151.29 277.238C1171.95 291.885 1195.9 301.21 1221.03 304.389C1246.15 307.567 1271.68 304.5 1295.33 295.459C1318.99 286.418 1340.05 271.682 1356.65 252.557L1240.36 151.606L1229.5 -2.01115Z" fill="#DD722E"/>
</g>
<g filter="url(#filter1_d_122_3440)">
<path d="M0 -2H1280V188.5C1280 188.5 406.5 8 365.5 126C324.5 244 0 175 0 175V-2Z" fill="url(#paint0_linear_122_3440)"/>
</g>
<g filter="url(#filter2_d_122_3440)">
<path d="M45.9591 89.9171L46.0421 78.5H46.6779C47.4519 81.4119 48.3734 83.7063 49.4423 85.3834C51.4511 88.4796 53.9759 90.0276 57.0168 90.0276C59.1362 90.0276 60.887 89.3181 62.2692 87.899C63.6514 86.48 64.3425 84.6831 64.3425 82.5084C64.3425 81.5685 64.1859 80.6102 63.8726 79.6334C63.5777 78.6567 63.1722 77.8181 62.6562 77.1178C62.1218 76.3991 61.3662 75.7079 60.3894 75.0445C59.4311 74.381 57.9567 73.5425 55.9663 72.5289C54.2155 71.6443 52.8702 70.8979 51.9303 70.2897C51.0088 69.6815 50.2624 69.0641 49.6911 68.4375C48.1062 66.7052 47.3137 64.595 47.3137 62.107C47.3137 60.5774 47.6178 59.103 48.2259 57.6839C48.8526 56.2649 49.7187 55.0485 50.8245 54.0349C52.778 52.2288 55.0909 51.3258 57.7632 51.3258C58.6294 51.3258 59.4311 51.4179 60.1682 51.6022C60.9054 51.7681 61.8914 52.109 63.1262 52.625C64.0476 52.9936 64.6742 53.2332 65.006 53.3438C65.3377 53.4359 65.6326 53.482 65.8906 53.482C66.5356 53.482 66.9687 53.0121 67.1899 52.0722H67.8257L68.0192 63.0469H67.3834C66.8858 61.2961 66.4527 59.96 66.0841 59.0385C65.7339 58.0986 65.3101 57.2324 64.8125 56.4399C63.9094 55.0024 62.9142 53.9427 61.8269 53.2609C60.7396 52.5605 59.4864 52.2104 58.0673 52.2104C56.0032 52.2104 54.3722 52.9107 53.1743 54.3113C52.6767 54.8827 52.2804 55.5553 51.9856 56.3294C51.7091 57.1034 51.5709 57.8774 51.5709 58.6515C51.5709 61.7292 53.5521 64.208 57.5144 66.0878L61.4122 67.9676C64.4162 69.3866 66.5817 70.9531 67.9086 72.6671C69.4198 74.5838 70.1754 76.8137 70.1754 79.357C70.1754 81.0525 69.8345 82.6743 69.1526 84.2224C68.1943 86.3786 66.7568 88.0465 64.8401 89.226C62.9234 90.387 60.6658 90.9675 58.0673 90.9675C55.6899 90.9675 53.4046 90.4976 51.2115 89.5577C50.0689 89.0601 49.387 88.7744 49.1659 88.7007C48.9447 88.627 48.6959 88.5901 48.4195 88.5901C47.5348 88.5901 46.9267 89.0325 46.5949 89.9171H45.9591ZM75.2005 66.5024H85.9265V67.083C83.8624 67.1935 82.8303 67.9952 82.8303 69.488C82.8303 70.2252 83.1989 71.7548 83.9361 74.0769L87.3087 84.3882L92.0082 71.9207C92.3768 70.9624 92.5611 70.1883 92.5611 69.5986C92.5611 68.0136 91.6028 67.1751 89.6861 67.083V66.5024H100.246V67.083C99.3431 67.212 98.7073 67.4055 98.3387 67.6635C97.749 68.0689 97.4541 68.6771 97.4541 69.488C97.4541 70.133 97.6292 71.0453 97.9794 72.2248L101.628 84.3882L105.941 73.4411C106.494 72.0221 106.77 70.9439 106.77 70.2068C106.77 69.2116 106.42 68.4467 105.72 67.9123C105.37 67.6174 104.734 67.341 103.812 67.083V66.5024H111.94V67.083C111.147 67.083 110.438 67.341 109.811 67.857C109.406 68.1703 109.019 68.6495 108.65 69.2945C108.3 69.9211 107.876 70.8702 107.378 72.1418L106.798 73.5517L100.246 90H99.2786L93.2246 71.5337L85.9265 90H84.9866L79.4854 73.2476L78.8219 71.2296C78.2138 69.4051 77.5872 68.2532 76.9421 67.7741C76.5735 67.4792 75.993 67.2488 75.2005 67.083V66.5024ZM114.67 67.0277L122.604 66.0325V82.0108L122.632 84.1118C122.632 85.365 122.706 86.2865 122.853 86.8762C123 87.4475 123.286 87.9267 123.71 88.3137C124.226 88.8113 125.175 89.1891 126.557 89.4471V90H114.366V89.4471C115.472 89.2997 116.264 89.097 116.744 88.8389C117.223 88.5625 117.61 88.1018 117.905 87.4567C118.107 87.0329 118.246 86.397 118.319 85.5493C118.412 84.6831 118.458 83.4391 118.458 81.8173V74.9892C118.458 73.091 118.412 71.764 118.319 71.0084C118.227 70.2344 118.024 69.6078 117.711 69.1286C117.398 68.6126 117.02 68.244 116.578 68.0229C116.135 67.7833 115.5 67.6358 114.67 67.5806V67.0277ZM120.42 56.1635C119.702 56.1635 119.103 55.9331 118.623 55.4724C118.163 55.0117 117.932 54.4311 117.932 53.7308C117.932 53.0489 118.172 52.4776 118.651 52.0169C119.13 51.5377 119.72 51.2981 120.42 51.2981C121.121 51.2981 121.71 51.5377 122.19 52.0169C122.669 52.4776 122.908 53.0489 122.908 53.7308C122.908 54.4311 122.669 55.0117 122.19 55.4724C121.729 55.9331 121.139 56.1635 120.42 56.1635ZM139.655 87.6779L139.682 92.7644V94.6719C139.682 95.9251 139.756 96.8373 139.903 97.4086C140.051 97.9984 140.336 98.496 140.76 98.9014C141.276 99.399 142.225 99.7676 143.608 100.007V100.56H131.417V100.007C132.522 99.8598 133.315 99.657 133.794 99.399C134.273 99.141 134.66 98.6895 134.955 98.0445C135.158 97.6206 135.296 96.9756 135.37 96.1094C135.462 95.2432 135.508 94.0084 135.508 92.405V73.3029C135.508 71.2204 135.176 69.7368 134.513 68.8522C133.868 67.9676 132.771 67.5253 131.223 67.5253V66.8342L139.268 65.7007C139.47 66.5854 139.572 67.3963 139.572 68.1334V68.6587C140.935 67.7372 142.216 67.083 143.414 66.6959C144.612 66.2905 145.911 66.0878 147.312 66.0878C150.113 66.0878 152.509 66.9263 154.499 68.6034C155.753 69.6723 156.72 71.0084 157.402 72.6118C158.084 74.2152 158.425 75.9844 158.425 77.9195C158.425 79.9283 158.056 81.7989 157.319 83.5313C156.6 85.2636 155.568 86.6919 154.223 87.8161C152.122 89.6038 149.625 90.4976 146.731 90.4976C145.349 90.4976 144.151 90.2949 143.138 89.8894C142.143 89.484 140.981 88.7468 139.655 87.6779ZM139.655 78.5C139.655 81.0433 139.765 82.9599 139.986 84.25C140.207 85.5401 140.604 86.5813 141.175 87.3738C141.691 88.0741 142.364 88.6362 143.193 89.0601C144.041 89.484 144.898 89.6959 145.764 89.6959C147.717 89.6959 149.422 88.7744 150.878 86.9315C151.763 85.8257 152.445 84.5172 152.924 83.006C153.403 81.4948 153.643 79.9191 153.643 78.2789C153.643 76.6939 153.412 75.1458 152.951 73.6346C152.509 72.105 151.882 70.7965 151.072 69.7092C149.689 67.8294 148.003 66.8894 146.013 66.8894C145.036 66.8894 144.114 67.129 143.248 67.6082C142.382 68.0874 141.691 68.7416 141.175 69.5709C140.604 70.4556 140.207 71.5613 139.986 72.8882C139.765 74.1967 139.655 76.0673 139.655 78.5ZM169.891 74.9616C169.817 75.8646 169.781 76.5188 169.781 76.9243C169.781 78.5277 170.011 80.0942 170.472 81.6238C170.951 83.1535 171.596 84.4251 172.407 85.4387C173.236 86.4708 174.259 87.2817 175.475 87.8714C176.71 88.4611 178 88.756 179.345 88.756C180.341 88.756 181.281 88.5901 182.165 88.2584C183.068 87.9267 183.815 87.4659 184.404 86.8762C185.068 86.2312 185.639 85.1991 186.118 83.7801L186.671 83.9736C186.192 86.1298 185.16 87.7608 183.575 88.8666C182.009 89.9539 179.917 90.4976 177.3 90.4976C175.033 90.4976 173.089 90.1382 171.467 89.4195C169.845 88.7007 168.472 87.595 167.348 86.1022C165.781 84.0196 164.998 81.4579 164.998 78.4171C164.998 74.2705 166.482 71.0176 169.449 68.6587C171.605 66.9447 174.065 66.0878 176.83 66.0878C178.304 66.0878 179.668 66.355 180.921 66.8894C182.174 67.4055 183.234 68.1611 184.1 69.1563C185.446 70.7043 186.118 72.6394 186.118 74.9616H169.891ZM181.999 73.8834C181.87 72.0405 181.529 70.6214 180.976 69.6262C180.479 68.7232 179.815 68.0136 178.986 67.4976C178.157 66.9632 177.272 66.6959 176.332 66.6959C174.747 66.6959 173.356 67.3778 172.158 68.7416C170.978 70.1054 170.278 71.8193 170.057 73.8834H181.999ZM193.355 89.3642C194.424 89.3089 195.281 89.1615 195.926 88.9219C196.571 88.6823 197.151 88.2953 197.667 87.7608C198.239 87.1711 198.626 86.4247 198.828 85.5216C199.05 84.6002 199.16 83.1995 199.16 81.3197V60.9459C199.16 58.9187 199.031 57.4351 198.773 56.4952C198.534 55.5553 198.054 54.7813 197.336 54.1731C196.433 53.4175 195.106 52.9936 193.355 52.9015V52.2657H208.559C211.932 52.2657 214.079 52.3025 215 52.3762C218.889 52.6711 222.188 53.7769 224.897 55.6935C227.477 57.5181 229.486 59.9139 230.923 62.881C232.361 65.8298 233.08 69.0457 233.08 72.5289C233.08 75.0721 232.665 77.4772 231.836 79.744C231.025 81.9924 229.891 83.863 228.435 85.3558C226.39 87.4567 223.837 88.7929 220.778 89.3642C218.493 89.7881 216.161 90 213.784 90H193.355V89.3642ZM205.214 53.1226V80.601C205.214 82.4071 205.316 83.7801 205.518 84.72C205.721 85.6599 206.099 86.4615 206.652 87.125C207.831 88.5625 209.748 89.2813 212.402 89.2813C214.669 89.2813 216.604 88.9127 218.207 88.1755C219.829 87.4199 221.276 86.2035 222.547 84.5264C223.8 82.9047 224.75 81.0525 225.395 78.97C226.058 76.869 226.39 74.639 226.39 72.2801C226.39 69.6631 225.994 67.1751 225.201 64.8161C224.409 62.4572 223.275 60.3931 221.801 58.6238C219.755 56.1727 217.313 54.5509 214.475 53.7585C212.927 53.3346 210.955 53.1226 208.559 53.1226H205.214ZM239.929 67.0277L247.863 66.0325V82.0108L247.891 84.1118C247.891 85.365 247.965 86.2865 248.112 86.8762C248.259 87.4475 248.545 87.9267 248.969 88.3137C249.485 88.8113 250.434 89.1891 251.816 89.4471V90H239.625V89.4471C240.731 89.2997 241.523 89.097 242.003 88.8389C242.482 88.5625 242.869 88.1018 243.164 87.4567C243.366 87.0329 243.505 86.397 243.578 85.5493C243.67 84.6831 243.717 83.4391 243.717 81.8173V74.9892C243.717 73.091 243.67 71.764 243.578 71.0084C243.486 70.2344 243.283 69.6078 242.97 69.1286C242.657 68.6126 242.279 68.244 241.837 68.0229C241.394 67.7833 240.759 67.6358 239.929 67.5806V67.0277ZM245.679 56.1635C244.961 56.1635 244.362 55.9331 243.882 55.4724C243.422 55.0117 243.191 54.4311 243.191 53.7308C243.191 53.0489 243.431 52.4776 243.91 52.0169C244.389 51.5377 244.979 51.2981 245.679 51.2981C246.38 51.2981 246.969 51.5377 247.448 52.0169C247.928 52.4776 248.167 53.0489 248.167 53.7308C248.167 54.4311 247.928 55.0117 247.448 55.4724C246.988 55.9331 246.398 56.1635 245.679 56.1635ZM258.389 90V82.1767H258.832C259.348 84.0934 259.993 85.623 260.767 86.7656C262.186 88.8482 263.845 89.8894 265.743 89.8894C266.904 89.8894 267.908 89.5393 268.756 88.8389C269.677 88.0649 270.138 86.9684 270.138 85.5493C270.138 84.3882 269.806 83.3746 269.143 82.5084C268.774 82.0477 268.304 81.6238 267.733 81.2368C267.18 80.8498 266.24 80.3061 264.913 79.6058C262.591 78.371 261.043 77.339 260.269 76.5096C259.163 75.3301 258.611 73.9664 258.611 72.4183C258.611 70.7596 259.163 69.3314 260.269 68.1334C261.541 66.7697 263.227 66.0878 265.328 66.0878C266.268 66.0878 267.143 66.2536 267.954 66.5854L268.894 67C269.189 67.1106 269.447 67.1659 269.668 67.1659C270.018 67.1659 270.35 66.8894 270.663 66.3366H271.216L271.52 72.6118H270.94C270.737 71.7272 270.516 71.0176 270.276 70.4832C270.055 69.9487 269.733 69.4327 269.309 68.9351C268.738 68.2348 268.074 67.6911 267.319 67.3041C266.563 66.8987 265.817 66.6959 265.079 66.6959C264.047 66.6959 263.163 67.0737 262.425 67.8294C261.707 68.5665 261.347 69.4788 261.347 70.5661C261.347 71.4692 261.67 72.2893 262.315 73.0265C262.978 73.7452 263.992 74.4087 265.356 75.0168L268.286 76.3438C270.037 77.1362 271.345 78.1222 272.212 79.3017C273.078 80.4812 273.511 81.8726 273.511 83.476C273.511 85.4111 272.884 87.0144 271.631 88.2861C270.194 89.7604 268.351 90.4976 266.102 90.4976C264.886 90.4976 263.651 90.258 262.398 89.7788C261.587 89.4655 261.099 89.2905 260.933 89.2536C260.767 89.1983 260.555 89.1707 260.297 89.1707C259.652 89.1707 259.163 89.4471 258.832 90H258.389Z" fill="white"/>
<g filter="url(#filter3_d_122_3440)">
<path d="M282.04 110.022C278.862 118.428 227.977 114.827 161.286 114.827C94.5959 114.827 30.9995 124.687 30.9995 122.034C30.9995 119.38 81.885 110.022 148.575 110.022C215.266 110.022 289.984 95.6067 282.04 110.022Z" fill="white"/>
</g>
</g>
<defs>
<filter id="filter0_d_122_3440" x="1011.04" y="-2.01123" width="349.615" height="315.617" filterUnits="userSpaceOnUse" color-interpolation-filters="sRGB">
<feFlood flood-opacity="0" result="BackgroundImageFix"/>
<feColorMatrix in="SourceAlpha" type="matrix" values="0 0 0 0 0 0 0 0 0 0 0 0 0 0 0 0 0 0 127 0" result="hardAlpha"/>
<feOffset dy="4"/>
<feGaussianBlur stdDeviation="2"/>
<feComposite in2="hardAlpha" operator="out"/>
<feColorMatrix type="matrix" values="0 0 0 0 0 0 0 0 0 0 0 0 0 0 0 0 0 0 0.25 0"/>
<feBlend mode="normal" in2="BackgroundImageFix" result="effect1_dropShadow_122_3440"/>
<feBlend mode="normal" in="SourceGraphic" in2="effect1_dropShadow_122_3440" result="shape"/>
</filter>
<filter id="filter1_d_122_3440" x="-4" y="-2" width="1288" height="205.051" filterUnits="userSpaceOnUse" color-interpolation-filters="sRGB">
<feFlood flood-opacity="0" result="BackgroundImageFix"/>
<feColorMatrix in="SourceAlpha" type="matrix" values="0 0 0 0 0 0 0 0 0 0 0 0 0 0 0 0 0 0 127 0" result="hardAlpha"/>
<feOffset dy="4"/>
<feGaussianBlur stdDeviation="2"/>
<feComposite in2="hardAlpha" operator="out"/>
<feColorMatrix type="matrix" values="0 0 0 0 0 0 0 0 0 0 0 0 0 0 0 0 0 0 0.25 0"/>
<feBlend mode="normal" in2="BackgroundImageFix" result="effect1_dropShadow_122_3440"/>
<feBlend mode="normal" in="SourceGraphic" in2="effect1_dropShadow_122_3440" result="shape"/>
</filter>
<filter id="filter2_d_122_3440" x="26.9995" y="51.2981" width="259.624" height="79.189" filterUnits="userSpaceOnUse" color-interpolation-filters="sRGB">
<feFlood flood-opacity="0" result="BackgroundImageFix"/>
<feColorMatrix in="SourceAlpha" type="matrix" values="0 0 0 0 0 0 0 0 0 0 0 0 0 0 0 0 0 0 127 0" result="hardAlpha"/>
<feOffset dy="4"/>
<feGaussianBlur stdDeviation="2"/>
<feComposite in2="hardAlpha" operator="out"/>
<feColorMatrix type="matrix" values="0 0 0 0 0 0 0 0 0 0 0 0 0 0 0 0 0 0 0.25 0"/>
<feBlend mode="normal" in2="BackgroundImageFix" result="effect1_dropShadow_122_3440"/>
<feBlend mode="normal" in="SourceGraphic" in2="effect1_dropShadow_122_3440" result="shape"/>
</filter>
<filter id="filter3_d_122_3440" x="26.9995" y="103.615" width="259.624" height="26.8718" filterUnits="userSpaceOnUse" color-interpolation-filters="sRGB">
<feFlood flood-opacity="0" result="BackgroundImageFix"/>
<feColorMatrix in="SourceAlpha" type="matrix" values="0 0 0 0 0 0 0 0 0 0 0 0 0 0 0 0 0 0 127 0" result="hardAlpha"/>
<feOffset dy="4"/>
<feGaussianBlur stdDeviation="2"/>
<feComposite in2="hardAlpha" operator="out"/>
<feColorMatrix type="matrix" values="0 0 0 0 0 0 0 0 0 0 0 0 0 0 0 0 0 0 0.25 0"/>
<feBlend mode="normal" in2="BackgroundImageFix" result="effect1_dropShadow_122_3440"/>
<feBlend mode="normal" in="SourceGraphic" in2="effect1_dropShadow_122_3440" result="shape"/>
</filter>
<linearGradient id="paint0_linear_122_3440" x1="364" y1="-50" x2="428.5" y2="325.5" gradientUnits="userSpaceOnUse">
<stop offset="0.405" stop-color="#3C8493"/>
<stop offset="1" stop-color="#12282D"/>
</linearGradient>
</defs>
</svg>
