<svg width="44" height="45" viewBox="0 0 44 45" fill="none" xmlns="http://www.w3.org/2000/svg">
<path d="M41.2739 22.1533C41.2739 33.2426 32.5004 42.1533 21.7739 42.1533C11.0475 42.1533 2.27393 33.2426 2.27393 22.1533C2.27393 11.064 11.0475 2.15332 21.7739 2.15332C32.5004 2.15332 41.2739 11.064 41.2739 22.1533Z" stroke="#00B5FE" stroke-width="4"/>
<path d="M22.614 10.6688L25.4412 16.3611C25.5044 16.5051 25.6047 16.6297 25.7318 16.7222C25.8588 16.8147 26.0082 16.8718 26.1645 16.8876L32.4436 17.8418C32.623 17.8651 32.7923 17.9392 32.9312 18.0553C33.0704 18.1713 33.1735 18.3246 33.2286 18.4972C33.2837 18.6697 33.2887 18.8545 33.2428 19.0297C33.1972 19.205 33.1022 19.3636 32.9697 19.4869L28.3342 23.896C28.2651 24.028 28.229 24.1747 28.229 24.3237C28.229 24.4728 28.2651 24.6195 28.3342 24.7515L29.2218 31.0033C29.2597 31.1839 29.2444 31.3716 29.1777 31.5438C29.1111 31.7159 28.996 31.8651 28.8463 31.973C28.6967 32.0809 28.519 32.1431 28.3347 32.1522C28.1504 32.161 27.9675 32.116 27.8082 32.023L22.2195 29.0618C22.0748 28.9965 21.918 28.9627 21.7592 28.9627C21.6005 28.9627 21.4436 28.9965 21.299 29.0618L15.7102 32.023C15.5509 32.116 15.368 32.161 15.1838 32.1522C14.9995 32.1431 14.8218 32.0809 14.6721 31.973C14.5225 31.8651 14.4073 31.7159 14.3407 31.5438C14.274 31.3716 14.2587 31.1839 14.2966 31.0033L15.3486 24.7515C15.3938 24.6064 15.4025 24.4523 15.3738 24.3031C15.3451 24.1538 15.28 24.014 15.1842 23.896L10.5488 19.4541C10.4259 19.3294 10.3396 19.1733 10.2994 19.0028C10.2592 18.8323 10.2667 18.654 10.321 18.4875C10.3754 18.321 10.4744 18.1727 10.6074 18.0587C10.7404 17.9449 10.9021 17.8698 11.0748 17.8418L17.354 16.9205C17.5103 16.9046 17.6596 16.8476 17.7867 16.7551C17.9137 16.6626 18.014 16.538 18.0772 16.394L20.9045 10.7017C20.9801 10.5406 21.0993 10.4039 21.2486 10.307C21.3978 10.2101 21.5712 10.1569 21.749 10.1535C21.9269 10.1501 22.1021 10.1965 22.255 10.2876C22.4078 10.3787 22.5322 10.5107 22.614 10.6688Z" fill="url(#paint0_linear_437_25)"/>
<defs>
<linearGradient id="paint0_linear_437_25" x1="30.3989" y1="10.1533" x2="11.8483" y2="32.6078" gradientUnits="userSpaceOnUse">
<stop stop-color="#01F1FD"/>
<stop offset="1" stop-color="#00A6FF"/>
</linearGradient>
</defs>
</svg>
