<svg width="320" height="140" viewBox="0 0 320 140" fill="none" xmlns="http://www.w3.org/2000/svg">
<g filter="url(#filter0_d_499_532)">
<path d="M29.4033 42H11.249V40.3496H17.2793V5.56445H14.3594C10.847 5.60677 8.49837 7.78613 7.31348 12.1025L6.10742 16.6094H4.33008L4.64746 3.91406H36.3223L36.5762 16.6094H34.7988L33.5928 12.1025C32.4502 7.78613 30.1227 5.60677 26.6104 5.56445H23.373V40.3496H27.7529C27.9645 40.3496 28.1761 40.3708 28.3877 40.4131C29.0648 40.54 29.4033 41.069 29.4033 42ZM64.2998 42.6348C61.2529 42.5924 59.4544 40.667 58.9043 36.8584C58.5234 37.7894 57.9521 38.6569 57.1904 39.4609C55.1592 41.5768 52.599 42.6348 49.5098 42.6348C48.2402 42.6348 47.0553 42.4232 45.9551 42C43.0352 40.8574 41.5752 38.6146 41.5752 35.2715C41.5752 34.7214 41.6175 34.2135 41.7021 33.748C42.5908 28.9238 48.3037 26.4906 58.8408 26.4482V22.4492C58.7985 18.1328 56.8942 15.9323 53.1279 15.8477C51.5199 15.8477 50.3138 16.3978 49.5098 17.498C49.3828 17.7096 49.0231 18.6406 48.4307 20.291C47.9229 21.6452 47.0977 22.3223 45.9551 22.3223C45.7012 22.3223 45.4261 22.3011 45.1299 22.2588C43.8604 21.9626 43.2256 21.1374 43.2256 19.7832C43.2256 19.0638 43.4795 18.3444 43.9873 17.625C45.5954 15.3822 48.8538 14.2607 53.7627 14.2607C60.6605 14.3031 64.1517 17.5404 64.2363 23.9727V37.3662C64.2786 39.4398 64.8288 40.5189 65.8867 40.6035C67.1986 40.5612 68.0026 39.0166 68.2988 35.9697L69.9492 36.0332C69.9069 36.7526 69.8434 37.4297 69.7588 38.0645C69.1663 41.1113 67.3467 42.6348 64.2998 42.6348ZM51.8584 40.0322C52.6201 40.0322 53.4242 39.863 54.2705 39.5244C56.598 38.4242 58.1214 36.4141 58.8408 33.4941V28.2256C55.8786 28.2679 53.5723 28.4795 51.9219 28.8604C48.7904 29.6221 47.2246 31.4206 47.2246 34.2559C47.2246 34.7214 47.2458 35.1657 47.2881 35.5889C47.6689 38.5511 49.1924 40.0322 51.8584 40.0322ZM73.6787 28.6699C73.6787 25.5807 74.377 22.8301 75.7734 20.418C78.1855 16.3132 82.0576 14.2607 87.3896 14.2607C89.8441 14.2607 92.0869 14.7897 94.1182 15.8477C96.7419 17.2441 98.0537 18.9792 98.0537 21.0527C98.0537 21.3066 98.0114 21.5817 97.9268 21.8779C97.5459 23.2321 96.5514 23.888 94.9434 23.8457C94.3086 23.8034 93.7796 23.6553 93.3564 23.4014C92.637 22.9782 92.1504 21.8779 91.8965 20.1006C91.8118 19.3812 91.7272 18.8734 91.6426 18.5771C91.1771 16.7575 89.8441 15.8477 87.6436 15.8477C86.7126 15.8477 85.8239 16.0169 84.9775 16.3555C81.4652 17.752 79.709 21.7298 79.709 28.2891C79.709 31.3359 80.2168 33.9173 81.2324 36.0332C82.7982 39.2493 85.1468 40.8574 88.2783 40.8574C88.8285 40.8574 89.3786 40.8151 89.9287 40.7305C93.2718 40.1803 95.6839 38.3607 97.165 35.2715L98.8154 35.7793C98.4769 36.5833 98.0326 37.3451 97.4824 38.0645C95.2396 41.1113 91.8965 42.6348 87.4531 42.6348C84.4909 42.6348 81.8672 41.9154 79.582 40.4766C75.6465 37.9798 73.6787 34.0443 73.6787 28.6699ZM115.05 40.4131C115.261 40.4131 115.473 40.4342 115.685 40.4766C116.319 40.5612 116.637 41.069 116.637 42H101.91V40.4131C103.18 40.4131 104.132 40.3285 104.767 40.1592C106.036 39.7783 106.671 38.6146 106.671 36.668V2.32715H101.91V0.740234H112.066V28.416L124.825 16.5459H120.064V14.959H130.855C130.855 15.1706 130.834 15.3822 130.792 15.5938C130.707 16.2285 130.2 16.5459 129.269 16.5459C128.845 16.5459 128.465 16.5882 128.126 16.6729C127.364 16.8421 126.243 17.625 124.762 19.0215L118.985 24.417L129.205 40.4131H131.3C131.554 40.4131 131.786 40.4342 131.998 40.4766C132.548 40.6035 132.823 41.1113 132.823 42H124L115.24 27.9717L112.066 30.9551V40.4131H115.05ZM163.134 40.4131C163.345 40.4131 163.557 40.4342 163.769 40.4766C164.361 40.5612 164.657 41.069 164.657 42H148.471V40.4131C149.74 40.4131 150.692 40.3285 151.327 40.1592C152.597 39.7783 153.231 38.6146 153.231 36.668V16.5459H148.661V14.959H153.231V14.0068C153.231 10.5368 153.909 7.65918 155.263 5.37402C157.252 2.07324 160.32 0.422852 164.467 0.422852C166.117 0.422852 167.598 0.697917 168.91 1.24805C171.026 2.13672 172.084 3.40625 172.084 5.05664C172.084 5.26823 172.063 5.47982 172.021 5.69141C171.724 6.91862 170.836 7.53223 169.354 7.53223C168.889 7.53223 168.445 7.38411 168.021 7.08789C167.683 6.79167 167.112 5.90299 166.308 4.42188C165.461 2.8138 164.403 2.00977 163.134 2.00977C162.541 2.00977 162.012 2.13672 161.547 2.39062C159.6 3.40625 158.627 7.46875 158.627 14.5781V14.959H165.927V16.5459H158.627V40.4131H163.134ZM175.813 28.416C175.856 36.7526 178.522 40.9632 183.812 41.0479C188.932 41.0055 191.513 36.7103 191.556 28.1621C191.513 20.0371 188.89 15.9323 183.685 15.8477C178.479 15.89 175.856 20.0794 175.813 28.416ZM183.875 14.2607C186.88 14.2607 189.567 15.0648 191.937 16.6729C195.745 19.2965 197.649 23.1898 197.649 28.3525C197.649 32.2458 196.422 35.5254 193.968 38.1914C191.259 41.1536 187.811 42.6348 183.621 42.6348C180.574 42.6348 177.824 41.7461 175.369 39.9688C171.645 37.2604 169.783 33.3249 169.783 28.1621C169.783 24.3958 170.968 21.222 173.338 18.6406C176.089 15.7207 179.601 14.2607 183.875 14.2607ZM181.717 5.75488C181.717 6.22038 181.611 6.68587 181.399 7.15137C180.849 8.50553 179.834 9.18262 178.353 9.18262C177.887 9.18262 177.422 9.09798 176.956 8.92871C175.602 8.33626 174.925 7.27832 174.925 5.75488C174.925 5.28939 175.031 4.82389 175.242 4.3584C175.792 3.04655 176.829 2.39062 178.353 2.39062C178.818 2.39062 179.284 2.49642 179.749 2.70801C181.061 3.25814 181.717 4.27376 181.717 5.75488ZM193.396 5.75488C193.396 6.2627 193.291 6.72819 193.079 7.15137C192.529 8.50553 191.492 9.18262 189.969 9.18262C189.546 9.18262 189.122 9.09798 188.699 8.92871C187.303 8.37858 186.604 7.32064 186.604 5.75488C186.604 5.33171 186.689 4.88737 186.858 4.42188C187.409 3.06771 188.445 2.39062 189.969 2.39062C190.434 2.39062 190.9 2.47526 191.365 2.64453C192.719 3.23698 193.396 4.27376 193.396 5.75488ZM217.502 40.4131C217.756 40.4131 217.967 40.4342 218.137 40.4766C218.771 40.5612 219.089 41.069 219.089 42H202.966V40.4131C204.235 40.4131 205.166 40.3285 205.759 40.1592C206.901 39.7783 207.473 38.6146 207.473 36.668V16.5459H202.966V14.959H212.551L212.805 21.0527C213.312 19.8678 213.99 18.8099 214.836 17.8789C216.867 15.6784 219.195 14.5781 221.818 14.5781C222.284 14.5781 222.728 14.6204 223.151 14.7051C225.098 15.1283 226.071 16.3132 226.071 18.2598C226.071 18.556 226.029 18.8734 225.944 19.2119C225.521 20.5238 224.611 21.1797 223.215 21.1797C222.919 21.1797 222.622 21.1374 222.326 21.0527C221.649 20.8411 220.972 20.1429 220.295 18.958C219.702 17.9001 219.089 17.3711 218.454 17.3711C217.946 17.3711 217.333 17.6673 216.613 18.2598C214.455 20.0794 213.228 22.8089 212.932 26.4482V40.4131H217.502ZM265.522 42.6348C262.476 42.5924 260.677 40.667 260.127 36.8584C259.746 37.7894 259.175 38.6569 258.413 39.4609C256.382 41.5768 253.822 42.6348 250.732 42.6348C249.463 42.6348 248.278 42.4232 247.178 42C244.258 40.8574 242.798 38.6146 242.798 35.2715C242.798 34.7214 242.84 34.2135 242.925 33.748C243.813 28.9238 249.526 26.4906 260.063 26.4482V22.4492C260.021 18.1328 258.117 15.9323 254.351 15.8477C252.743 15.8477 251.536 16.3978 250.732 17.498C250.605 17.7096 250.246 18.6406 249.653 20.291C249.146 21.6452 248.32 22.3223 247.178 22.3223C246.924 22.3223 246.649 22.3011 246.353 22.2588C245.083 21.9626 244.448 21.1374 244.448 19.7832C244.448 19.0638 244.702 18.3444 245.21 17.625C246.818 15.3822 250.076 14.2607 254.985 14.2607C261.883 14.3031 265.374 17.5404 265.459 23.9727V37.3662C265.501 39.4398 266.051 40.5189 267.109 40.6035C268.421 40.5612 269.225 39.0166 269.521 35.9697L271.172 36.0332C271.13 36.7526 271.066 37.4297 270.981 38.0645C270.389 41.1113 268.569 42.6348 265.522 42.6348ZM253.081 40.0322C253.843 40.0322 254.647 39.863 255.493 39.5244C257.821 38.4242 259.344 36.4141 260.063 33.4941V28.2256C257.101 28.2679 254.795 28.4795 253.145 28.8604C250.013 29.6221 248.447 31.4206 248.447 34.2559C248.447 34.7214 248.468 35.1657 248.511 35.5889C248.892 38.5511 250.415 40.0322 253.081 40.0322ZM273.695 16.6094V15.0225H278.139V8.99219L283.534 7.65918V15.0225H293.119V16.6094H283.534V35.9062C283.576 39.0801 284.719 40.7093 286.962 40.7939C289.12 40.7516 290.644 38.8473 291.532 35.0811L293.246 35.3984C293.246 35.4408 293.246 35.4831 293.246 35.5254C292.273 40.3073 289.797 42.6982 285.819 42.6982C280.995 42.529 278.435 39.6725 278.139 34.1289V16.6094H273.695ZM295.77 16.6094V15.0225H300.213V8.99219L305.608 7.65918V15.0225H315.193V16.6094H305.608V35.9062C305.651 39.0801 306.793 40.7093 309.036 40.7939C311.194 40.7516 312.718 38.8473 313.606 35.0811L315.32 35.3984C315.32 35.4408 315.32 35.4831 315.32 35.5254C314.347 40.3073 311.871 42.6982 307.894 42.6982C303.069 42.529 300.509 39.6725 300.213 34.1289V16.6094H295.77ZM26.1821 119L25.6108 112.398C23.6642 117.138 20.3634 119.55 15.7085 119.635C13.4233 119.635 11.3498 118.958 9.48779 117.604C6.14469 115.149 4.47314 111.319 4.47314 106.114C4.47314 102.729 5.27718 99.7031 6.88525 97.0371C9.29736 93.1862 12.7463 91.2607 17.2319 91.2607C20.6174 91.2607 23.368 92.3398 25.4839 94.498V79.3271H19.5171V77.7402H30.9429L31.0063 117.413H34.1802C34.4341 117.413 34.6668 117.434 34.8784 117.477C35.4285 117.604 35.7036 118.111 35.7036 119H26.1821ZM10.5034 105.353C10.5034 107.384 10.715 109.203 11.1382 110.812C12.1961 114.959 14.3543 117.032 17.6128 117.032C19.1785 117.032 20.575 116.524 21.8022 115.509C24.3836 113.266 25.6743 109.479 25.6743 104.146C25.6743 101.777 25.3569 99.7031 24.7222 97.9258C23.495 94.5827 21.3791 92.9111 18.3745 92.9111C17.1473 92.9111 16.047 93.2074 15.0737 93.7998C12.0269 95.5771 10.5034 99.4281 10.5034 105.353ZM70.9175 117.413C71.1714 117.413 71.4041 117.434 71.6157 117.477C72.1659 117.604 72.4409 118.111 72.4409 119H63.0464L62.6021 112.779C62.1789 113.837 61.6287 114.811 60.9517 115.699C58.9204 118.323 56.2967 119.635 53.0806 119.635C47.0715 119.592 44.0457 115.995 44.0034 108.844V93.5459H39.3696V91.959H49.4624V109.796C49.4624 110.346 49.5047 110.896 49.5894 111.446C50.0549 115.001 51.938 116.778 55.2388 116.778C56.3813 116.778 57.4816 116.44 58.5396 115.763C61.1209 114.112 62.4328 111.425 62.4751 107.701V93.5459H57.7144V91.959H67.9341V117.413H70.9175ZM100.593 117.921C103.513 117.921 105.417 117.011 106.306 115.191C106.602 114.599 106.75 113.985 106.75 113.351C106.75 111.489 105.439 109.902 102.815 108.59C102.265 108.294 101.355 107.87 100.085 107.32C96.7 105.882 94.436 104.527 93.2935 103.258C92.1086 101.904 91.5161 100.317 91.5161 98.4971C91.5161 95.4925 93.1665 93.3555 96.4673 92.0859C98.033 91.5358 99.7257 91.2607 101.545 91.2607C104.423 91.2607 106.856 91.8532 108.845 93.0381C108.845 91.8109 109.141 91.1126 109.734 90.9434C109.945 90.901 110.221 90.8799 110.559 90.8799V98.8145H108.845C108.761 94.9212 106.602 92.9535 102.371 92.9111C99.3237 92.9111 97.4194 93.8421 96.6577 95.7041C96.4884 96.2119 96.4038 96.7197 96.4038 97.2275C96.4038 99.0472 97.6945 100.592 100.276 101.861C100.868 102.158 101.778 102.56 103.005 103.067C106.433 104.464 108.718 105.776 109.861 107.003C111.088 108.399 111.702 110.05 111.702 111.954C111.702 115.466 109.861 117.794 106.179 118.937C104.74 119.402 103.175 119.635 101.482 119.635C98.3081 119.592 95.5575 118.852 93.23 117.413C93.23 118.513 92.9549 119.148 92.4048 119.317C92.1509 119.36 91.8547 119.381 91.5161 119.381V109.732H93.3569C93.4416 115.149 95.8537 117.879 100.593 117.921ZM126.667 129.474H130.856C131.11 129.474 131.321 129.495 131.491 129.537C132.125 129.622 132.443 130.13 132.443 131.061H116.701V129.474C117.97 129.474 118.922 129.368 119.557 129.156C120.657 128.775 121.208 127.633 121.208 125.729V93.5459H116.701V91.959H126.222L126.54 98.6875C126.92 97.5872 127.449 96.5716 128.126 95.6406C130.2 92.7207 133.141 91.2607 136.95 91.2607C139.531 91.2607 141.753 92.0859 143.615 93.7363C146.365 96.2331 147.741 99.9147 147.741 104.781C147.741 109.013 146.556 112.504 144.186 115.255C141.647 118.175 138.452 119.635 134.601 119.635C131.512 119.465 128.867 118.386 126.667 116.397V129.474ZM134.665 93.9268C133.226 93.9268 131.893 94.3923 130.666 95.3232C127.957 97.4391 126.603 101.227 126.603 106.686C126.603 109.098 126.899 111.171 127.492 112.906C128.719 116.334 130.877 118.048 133.966 118.048C134.94 118.048 135.849 117.857 136.696 117.477C140.039 115.953 141.71 111.954 141.71 105.479C141.71 104.168 141.626 102.919 141.457 101.734C140.695 96.5293 138.431 93.9268 134.665 93.9268ZM167.022 92.8477C166.006 92.8477 165.054 93.0804 164.166 93.5459C161.288 95.027 159.764 98.2643 159.595 103.258L165.816 103.448C167.678 103.491 169.138 103.385 170.196 103.131C172.058 102.665 172.989 101.396 172.989 99.3223C172.989 98.4336 172.862 97.5872 172.608 96.7832C171.762 94.1595 169.9 92.8477 167.022 92.8477ZM178.257 112.843C178.003 113.393 177.728 113.943 177.432 114.493C175.274 117.921 171.825 119.635 167.085 119.635C164.25 119.635 161.711 118.937 159.468 117.54C155.533 115.001 153.565 111.023 153.565 105.606C153.565 102.517 154.242 99.7878 155.596 97.418C158.008 93.3132 161.775 91.2607 166.895 91.2607C169.603 91.2607 172.015 91.832 174.131 92.9746C177.178 94.7096 178.702 97.0794 178.702 100.084C178.702 101.523 178.215 102.665 177.242 103.512C175.761 104.697 172.312 105.247 166.895 105.162L159.595 105.035C159.638 106.601 159.764 108.04 159.976 109.352C160.992 115.022 163.742 117.857 168.228 117.857C168.863 117.857 169.519 117.794 170.196 117.667C173.158 117.032 175.316 115.234 176.67 112.271L178.257 112.843ZM197.221 117.413C197.433 117.413 197.644 117.434 197.856 117.477C198.448 117.561 198.745 118.069 198.745 119H183.574V117.413C184.97 117.413 186.007 117.307 186.684 117.096C187.827 116.715 188.398 115.572 188.398 113.668V79.3271H183.574V77.7402H193.793V117.413H197.221ZM226.151 119.635C223.104 119.592 221.306 117.667 220.755 113.858C220.375 114.789 219.803 115.657 219.042 116.461C217.01 118.577 214.45 119.635 211.361 119.635C210.091 119.635 208.906 119.423 207.806 119C204.886 117.857 203.426 115.615 203.426 112.271C203.426 111.721 203.469 111.214 203.553 110.748C204.442 105.924 210.155 103.491 220.692 103.448V99.4492C220.65 95.1328 218.745 92.9323 214.979 92.8477C213.371 92.8477 212.165 93.3978 211.361 94.498C211.234 94.7096 210.874 95.6406 210.282 97.291C209.774 98.6452 208.949 99.3223 207.806 99.3223C207.552 99.3223 207.277 99.3011 206.981 99.2588C205.711 98.9626 205.077 98.1374 205.077 96.7832C205.077 96.0638 205.331 95.3444 205.838 94.625C207.446 92.3822 210.705 91.2607 215.614 91.2607C222.512 91.3031 226.003 94.5404 226.087 100.973V114.366C226.13 116.44 226.68 117.519 227.738 117.604C229.05 117.561 229.854 116.017 230.15 112.97L231.8 113.033C231.758 113.753 231.694 114.43 231.61 115.064C231.017 118.111 229.198 119.635 226.151 119.635ZM213.709 117.032C214.471 117.032 215.275 116.863 216.122 116.524C218.449 115.424 219.972 113.414 220.692 110.494V105.226C217.73 105.268 215.423 105.479 213.773 105.86C210.641 106.622 209.076 108.421 209.076 111.256C209.076 111.721 209.097 112.166 209.139 112.589C209.52 115.551 211.043 117.032 213.709 117.032ZM257.239 119L256.667 112.398C254.721 117.138 251.42 119.55 246.765 119.635C244.48 119.635 242.406 118.958 240.544 117.604C237.201 115.149 235.53 111.319 235.53 106.114C235.53 102.729 236.334 99.7031 237.942 97.0371C240.354 93.1862 243.803 91.2607 248.289 91.2607C251.674 91.2607 254.425 92.3398 256.541 94.498V79.3271H250.574V77.7402H262L262.063 117.413H265.237C265.491 117.413 265.723 117.434 265.935 117.477C266.485 117.604 266.76 118.111 266.76 119H257.239ZM241.56 105.353C241.56 107.384 241.772 109.203 242.195 110.812C243.253 114.959 245.411 117.032 248.669 117.032C250.235 117.032 251.632 116.524 252.859 115.509C255.44 113.266 256.731 109.479 256.731 104.146C256.731 101.777 256.414 99.7031 255.779 97.9258C254.552 94.5827 252.436 92.9111 249.431 92.9111C248.204 92.9111 247.104 93.2074 246.13 93.7998C243.083 95.5771 241.56 99.4281 241.56 105.353ZM285.089 92.8477C284.074 92.8477 283.122 93.0804 282.233 93.5459C279.355 95.027 277.832 98.2643 277.663 103.258L283.883 103.448C285.745 103.491 287.205 103.385 288.263 103.131C290.125 102.665 291.056 101.396 291.056 99.3223C291.056 98.4336 290.929 97.5872 290.675 96.7832C289.829 94.1595 287.967 92.8477 285.089 92.8477ZM296.325 112.843C296.071 113.393 295.796 113.943 295.5 114.493C293.341 117.921 289.892 119.635 285.153 119.635C282.318 119.635 279.778 118.937 277.536 117.54C273.6 115.001 271.632 111.023 271.632 105.606C271.632 102.517 272.309 99.7878 273.664 97.418C276.076 93.3132 279.842 91.2607 284.962 91.2607C287.671 91.2607 290.083 91.832 292.199 92.9746C295.246 94.7096 296.769 97.0794 296.769 100.084C296.769 101.523 296.282 102.665 295.309 103.512C293.828 104.697 290.379 105.247 284.962 105.162L277.663 105.035C277.705 106.601 277.832 108.04 278.043 109.352C279.059 115.022 281.81 117.857 286.295 117.857C286.93 117.857 287.586 117.794 288.263 117.667C291.225 117.032 293.384 115.234 294.738 112.271L296.325 112.843ZM309.322 108.082H307.354C307.354 102.835 306.889 97.693 305.958 92.6572C305.153 88.4678 304.751 85.7594 304.751 84.5322C304.794 81.7816 306.021 80.3639 308.433 80.2793C310.718 80.3216 311.903 81.6969 311.988 84.4053C311.988 85.7594 311.713 87.833 311.163 90.626C309.935 96.9313 309.322 102.75 309.322 108.082ZM311.797 115.826C311.797 116.334 311.692 116.821 311.48 117.286C310.845 118.64 309.787 119.317 308.306 119.317C307.798 119.317 307.312 119.212 306.846 119C305.492 118.365 304.815 117.307 304.815 115.826C304.815 115.318 304.942 114.789 305.196 114.239C305.831 112.927 306.867 112.271 308.306 112.271C308.814 112.271 309.322 112.398 309.83 112.652C311.141 113.287 311.797 114.345 311.797 115.826Z" fill="#3C8493"/>
</g>
<defs>
<filter id="filter0_d_499_532" x="0.330078" y="0.422852" width="318.99" height="138.638" filterUnits="userSpaceOnUse" color-interpolation-filters="sRGB">
<feFlood flood-opacity="0" result="BackgroundImageFix"/>
<feColorMatrix in="SourceAlpha" type="matrix" values="0 0 0 0 0 0 0 0 0 0 0 0 0 0 0 0 0 0 127 0" result="hardAlpha"/>
<feOffset dy="4"/>
<feGaussianBlur stdDeviation="2"/>
<feComposite in2="hardAlpha" operator="out"/>
<feColorMatrix type="matrix" values="0 0 0 0 0 0 0 0 0 0 0 0 0 0 0 0 0 0 0.25 0"/>
<feBlend mode="normal" in2="BackgroundImageFix" result="effect1_dropShadow_499_532"/>
<feBlend mode="normal" in="SourceGraphic" in2="effect1_dropShadow_499_532" result="shape"/>
</filter>
</defs>
</svg>
