<svg width="20" height="24" viewBox="0 0 20 24" fill="none" xmlns="http://www.w3.org/2000/svg">
<g clip-path="url(#clip0_237_989)">
<path d="M6.62662 18.5531C6.62662 18.5531 5.64708 19.0855 7.32375 19.2656C9.35505 19.4822 10.3931 19.4512 12.6317 19.0552C12.6317 19.0552 13.2202 19.4 14.042 19.6988C9.02403 21.7088 2.68515 19.5823 6.62662 18.5531ZM6.01342 15.9302C6.01342 15.9302 4.91476 16.6903 6.5927 16.8524C8.76256 17.0616 10.4761 17.0788 13.4413 16.5452C13.4413 16.5452 13.8514 16.9337 14.4963 17.1463C8.42917 18.8043 1.67147 17.277 6.01342 15.9302Z" fill="#5382A1"/>
<path d="M11.1829 11.4809C12.4194 12.8113 10.8581 14.0085 10.8581 14.0085C10.8581 14.0085 13.9976 12.4938 12.5558 10.597C11.2091 8.82817 10.1764 7.94919 15.767 4.91895C15.767 4.91895 6.99157 6.96734 11.1829 11.4809Z" fill="#E76F00"/>
<path d="M17.8197 20.493C17.8197 20.493 18.5446 21.0512 17.0213 21.483C14.1249 22.3031 4.96584 22.5508 2.42148 21.5157C1.50688 21.1439 3.22207 20.6279 3.76157 20.5195C4.32422 20.4055 4.64581 20.4268 4.64581 20.4268C3.62864 19.7571 -1.92871 21.7417 1.82298 22.31C12.0543 23.8607 20.4736 21.6118 17.8197 20.493ZM7.09778 13.2124C7.09778 13.2124 2.43899 14.2466 5.44804 14.6221C6.71852 14.7811 9.25123 14.7451 11.6104 14.5604C13.5385 14.4085 15.4745 14.0852 15.4745 14.0852C15.4745 14.0852 14.7946 14.3573 14.3028 14.6712C9.57178 15.8341 0.432339 15.2931 3.06347 14.1036C5.28862 13.0984 7.09778 13.2124 7.09778 13.2124ZM15.4553 17.5783C20.2646 15.2427 18.041 12.9982 16.4889 13.3006C16.1085 13.3746 15.9389 13.4387 15.9389 13.4387C15.9389 13.4387 16.0801 13.232 16.3498 13.1425C19.4202 12.1336 21.7817 16.118 15.3586 17.696C15.3586 17.6961 15.4331 17.634 15.4553 17.5783Z" fill="#5382A1"/>
<path d="M12.5563 0.0257041C12.5563 0.0257041 15.2198 2.51588 10.0301 6.34485C5.86863 9.41643 9.08119 11.1677 10.0284 13.1687C7.59926 11.1204 5.81653 9.31717 7.01256 7.63898C8.76791 5.17537 13.6309 3.98106 12.5563 0.0257041Z" fill="#E76F00"/>
<path d="M7.57032 23.9073C12.1866 24.1835 19.2755 23.7541 19.4434 21.7126C19.4434 21.7126 19.1207 22.4866 15.6282 23.1012C11.6881 23.7941 6.82857 23.7132 3.94629 23.2691C3.94636 23.2691 4.53625 23.7255 7.57032 23.9073Z" fill="#5382A1"/>
</g>
<defs>
<clipPath id="clip0_237_989">
<rect width="19" height="24" fill="white" transform="translate(0.5)"/>
</clipPath>
</defs>
</svg>
